<mxfile host="app.diagrams.net" agent="Mozilla/5.0 (Windows NT 10.0; Win64; x64) AppleWebKit/537.36 (KHTML, like Gecko) Chrome/141.0.0.0 Safari/537.36" version="28.2.8">
  <diagram name="第 1 页" id="kbOdk6Lyz25s7205qlWB">
    <mxGraphModel dx="3381" dy="657" grid="0" gridSize="10" guides="1" tooltips="1" connect="1" arrows="1" fold="1" page="1" pageScale="1" pageWidth="2339" pageHeight="3300" math="0" shadow="0">
      <root>
        <mxCell id="0" />
        <mxCell id="1" parent="0" />
        <mxCell id="QFRHChqrzQPd7RxqJ8-l-7" style="rounded=0;orthogonalLoop=1;jettySize=auto;html=1;exitX=0;exitY=1;exitDx=0;exitDy=0;entryX=1;entryY=0;entryDx=0;entryDy=0;" parent="1" source="QFRHChqrzQPd7RxqJ8-l-3" target="QFRHChqrzQPd7RxqJ8-l-4" edge="1">
          <mxGeometry relative="1" as="geometry" />
        </mxCell>
        <mxCell id="QFRHChqrzQPd7RxqJ8-l-8" style="rounded=0;orthogonalLoop=1;jettySize=auto;html=1;exitX=1;exitY=1;exitDx=0;exitDy=0;entryX=0;entryY=0;entryDx=0;entryDy=0;" parent="1" source="QFRHChqrzQPd7RxqJ8-l-3" target="QFRHChqrzQPd7RxqJ8-l-6" edge="1">
          <mxGeometry relative="1" as="geometry" />
        </mxCell>
        <mxCell id="QFRHChqrzQPd7RxqJ8-l-3" value="&lt;font style=&quot;font-size: 16px;&quot;&gt;dp（0,0）&lt;/font&gt;" style="rounded=1;whiteSpace=wrap;html=1;fillColor=#d5e8d4;strokeColor=#82b366;" parent="1" vertex="1">
          <mxGeometry x="-822" y="189" width="107" height="35" as="geometry" />
        </mxCell>
        <mxCell id="QFRHChqrzQPd7RxqJ8-l-4" value="&lt;font style=&quot;font-size: 16px;&quot;&gt;dp（1,20）&lt;/font&gt;" style="rounded=1;whiteSpace=wrap;html=1;fillColor=#ffe6cc;strokeColor=#d79b00;" parent="1" vertex="1">
          <mxGeometry x="-1093" y="290" width="109" height="39" as="geometry" />
        </mxCell>
        <mxCell id="QFRHChqrzQPd7RxqJ8-l-28" style="rounded=0;orthogonalLoop=1;jettySize=auto;html=1;exitX=0;exitY=1;exitDx=0;exitDy=0;" parent="1" source="QFRHChqrzQPd7RxqJ8-l-6" target="QFRHChqrzQPd7RxqJ8-l-15" edge="1">
          <mxGeometry relative="1" as="geometry" />
        </mxCell>
        <mxCell id="QFRHChqrzQPd7RxqJ8-l-29" style="rounded=0;orthogonalLoop=1;jettySize=auto;html=1;exitX=1;exitY=1;exitDx=0;exitDy=0;" parent="1" source="QFRHChqrzQPd7RxqJ8-l-6" target="QFRHChqrzQPd7RxqJ8-l-16" edge="1">
          <mxGeometry relative="1" as="geometry" />
        </mxCell>
        <mxCell id="QFRHChqrzQPd7RxqJ8-l-6" value="&lt;font style=&quot;font-size: 16px;&quot;&gt;dp（1,0）&lt;/font&gt;" style="rounded=1;whiteSpace=wrap;html=1;fillColor=#ffe6cc;strokeColor=#d79b00;" parent="1" vertex="1">
          <mxGeometry x="-549" y="290" width="103" height="36" as="geometry" />
        </mxCell>
        <mxCell id="QFRHChqrzQPd7RxqJ8-l-9" value="&lt;div&gt;&lt;font face=&quot;Times New Roman&quot;&gt;总体积为30&lt;/font&gt;&lt;/div&gt;&lt;font face=&quot;YaJ0R3QCzbP8KVSOE0K6&quot; style=&quot;font-size: 15px;&quot;&gt;第1株草药：采摘时间20，价值100&lt;br&gt;&lt;/font&gt;&lt;div style=&quot;font-size: 15px;&quot;&gt;&lt;font face=&quot;YaJ0R3QCzbP8KVSOE0K6&quot;&gt;&lt;span style=&quot;background-color: initial;&quot;&gt;第2株草药&lt;/span&gt;&lt;font style=&quot;font-size: 15px;&quot;&gt;：&lt;/font&gt;&lt;span style=&quot;background-color: initial;&quot;&gt;采摘时间&lt;/span&gt;&lt;span style=&quot;background-color: initial;&quot;&gt;体积20，价值110&lt;/span&gt;&lt;/font&gt;&lt;/div&gt;&lt;div style=&quot;font-size: 15px;&quot;&gt;&lt;font face=&quot;YaJ0R3QCzbP8KVSOE0K6&quot;&gt;&lt;span style=&quot;background-color: initial;&quot;&gt;第3株草药&lt;/span&gt;&lt;font style=&quot;font-size: 15px;&quot;&gt;：&lt;/font&gt;&lt;span style=&quot;background-color: initial;&quot;&gt;采摘时间&lt;/span&gt;&lt;span style=&quot;background-color: initial;&quot;&gt;体积10，价值60&lt;/span&gt;&lt;/font&gt;&lt;/div&gt;" style="rounded=1;whiteSpace=wrap;html=1;align=left;fontSize=15;" parent="1" vertex="1">
          <mxGeometry x="-878.5" y="63" width="359" height="93" as="geometry" />
        </mxCell>
        <mxCell id="QFRHChqrzQPd7RxqJ8-l-10" value="选+100" style="text;html=1;align=center;verticalAlign=middle;resizable=0;points=[];autosize=1;strokeColor=none;fillColor=none;" parent="1" vertex="1">
          <mxGeometry x="-914" y="215" width="57" height="26" as="geometry" />
        </mxCell>
        <mxCell id="QFRHChqrzQPd7RxqJ8-l-11" value="不选" style="text;html=1;align=center;verticalAlign=middle;resizable=0;points=[];autosize=1;strokeColor=none;fillColor=none;" parent="1" vertex="1">
          <mxGeometry x="-627" y="234" width="42" height="26" as="geometry" />
        </mxCell>
        <mxCell id="QFRHChqrzQPd7RxqJ8-l-35" style="rounded=0;orthogonalLoop=1;jettySize=auto;html=1;exitX=1;exitY=1;exitDx=0;exitDy=0;" parent="1" source="QFRHChqrzQPd7RxqJ8-l-14" target="QFRHChqrzQPd7RxqJ8-l-20" edge="1">
          <mxGeometry relative="1" as="geometry" />
        </mxCell>
        <mxCell id="QFRHChqrzQPd7RxqJ8-l-14" value="&lt;font style=&quot;font-size: 16px;&quot;&gt;dp（2,20）&lt;/font&gt;" style="rounded=1;whiteSpace=wrap;html=1;fillColor=#ffe6cc;strokeColor=#d79b00;" parent="1" vertex="1">
          <mxGeometry x="-1082" y="396" width="110" height="40" as="geometry" />
        </mxCell>
        <mxCell id="QFRHChqrzQPd7RxqJ8-l-38" style="rounded=0;orthogonalLoop=1;jettySize=auto;html=1;exitX=0;exitY=1;exitDx=0;exitDy=0;" parent="1" source="QFRHChqrzQPd7RxqJ8-l-15" target="QFRHChqrzQPd7RxqJ8-l-22" edge="1">
          <mxGeometry relative="1" as="geometry" />
        </mxCell>
        <mxCell id="QFRHChqrzQPd7RxqJ8-l-39" style="rounded=0;orthogonalLoop=1;jettySize=auto;html=1;exitX=1;exitY=1;exitDx=0;exitDy=0;" parent="1" source="QFRHChqrzQPd7RxqJ8-l-15" target="QFRHChqrzQPd7RxqJ8-l-23" edge="1">
          <mxGeometry relative="1" as="geometry" />
        </mxCell>
        <mxCell id="QFRHChqrzQPd7RxqJ8-l-15" value="&lt;font style=&quot;font-size: 16px;&quot;&gt;dp（2,20）&lt;/font&gt;" style="rounded=1;whiteSpace=wrap;html=1;fillColor=#ffe6cc;strokeColor=#d79b00;flipV=1;" parent="1" vertex="1">
          <mxGeometry x="-689" y="396" width="109" height="39" as="geometry" />
        </mxCell>
        <mxCell id="QFRHChqrzQPd7RxqJ8-l-40" style="rounded=0;orthogonalLoop=1;jettySize=auto;html=1;exitX=0;exitY=1;exitDx=0;exitDy=0;" parent="1" source="QFRHChqrzQPd7RxqJ8-l-16" target="QFRHChqrzQPd7RxqJ8-l-24" edge="1">
          <mxGeometry relative="1" as="geometry" />
        </mxCell>
        <mxCell id="QFRHChqrzQPd7RxqJ8-l-41" style="rounded=0;orthogonalLoop=1;jettySize=auto;html=1;exitX=1;exitY=1;exitDx=0;exitDy=0;" parent="1" source="QFRHChqrzQPd7RxqJ8-l-16" target="QFRHChqrzQPd7RxqJ8-l-25" edge="1">
          <mxGeometry relative="1" as="geometry" />
        </mxCell>
        <mxCell id="QFRHChqrzQPd7RxqJ8-l-16" value="&lt;font style=&quot;font-size: 16px;&quot;&gt;dp（2,0）&lt;/font&gt;" style="rounded=1;whiteSpace=wrap;html=1;fillColor=#ffe6cc;strokeColor=#d79b00;flipV=1;" parent="1" vertex="1">
          <mxGeometry x="-381" y="401" width="110" height="40" as="geometry" />
        </mxCell>
        <mxCell id="QFRHChqrzQPd7RxqJ8-l-17" style="rounded=0;orthogonalLoop=1;jettySize=auto;html=1;exitX=0.5;exitY=1;exitDx=0;exitDy=0;entryX=0.4;entryY=0.056;entryDx=0;entryDy=0;entryPerimeter=0;" parent="1" source="QFRHChqrzQPd7RxqJ8-l-4" target="QFRHChqrzQPd7RxqJ8-l-14" edge="1">
          <mxGeometry relative="1" as="geometry" />
        </mxCell>
        <mxCell id="QFRHChqrzQPd7RxqJ8-l-30" value="不选" style="text;html=1;align=center;verticalAlign=middle;resizable=0;points=[];autosize=1;strokeColor=none;fillColor=none;" parent="1" vertex="1">
          <mxGeometry x="-1032" y="350" width="42" height="26" as="geometry" />
        </mxCell>
        <mxCell id="QFRHChqrzQPd7RxqJ8-l-18" value="&lt;font style=&quot;font-size: 16px;&quot;&gt;dp（3,30）&lt;/font&gt;" style="rounded=1;whiteSpace=wrap;html=1;fillColor=#ffe6cc;strokeColor=#d79b00;align=center;flipH=1;flipV=1;" parent="1" vertex="1">
          <mxGeometry x="-1149" y="507" width="110" height="40" as="geometry" />
        </mxCell>
        <mxCell id="QFRHChqrzQPd7RxqJ8-l-20" value="&lt;font style=&quot;font-size: 16px;&quot;&gt;dp（3,20）&lt;/font&gt;" style="rounded=1;whiteSpace=wrap;html=1;fillColor=#ffe6cc;strokeColor=#d79b00;align=center;flipH=1;flipV=1;" parent="1" vertex="1">
          <mxGeometry x="-976" y="507" width="110" height="40" as="geometry" />
        </mxCell>
        <mxCell id="QFRHChqrzQPd7RxqJ8-l-22" value="&lt;font style=&quot;font-size: 16px;&quot;&gt;dp（3,30）&lt;/font&gt;" style="rounded=1;whiteSpace=wrap;html=1;fillColor=#ffe6cc;strokeColor=#d79b00;align=center;flipH=1;flipV=1;" parent="1" vertex="1">
          <mxGeometry x="-785" y="507" width="110" height="40" as="geometry" />
        </mxCell>
        <mxCell id="QFRHChqrzQPd7RxqJ8-l-23" value="&lt;font style=&quot;font-size: 16px;&quot;&gt;dp（3,20）&lt;/font&gt;" style="rounded=1;whiteSpace=wrap;html=1;fillColor=#ffe6cc;strokeColor=#d79b00;align=center;flipH=1;flipV=1;" parent="1" vertex="1">
          <mxGeometry x="-602" y="507" width="110" height="40" as="geometry" />
        </mxCell>
        <mxCell id="QFRHChqrzQPd7RxqJ8-l-24" value="&lt;font style=&quot;font-size: 16px;&quot;&gt;dp（3,20）&lt;/font&gt;" style="rounded=1;whiteSpace=wrap;html=1;fillColor=#ffe6cc;strokeColor=#d79b00;align=center;flipH=1;flipV=1;" parent="1" vertex="1">
          <mxGeometry x="-466" y="504" width="110" height="40" as="geometry" />
        </mxCell>
        <mxCell id="QFRHChqrzQPd7RxqJ8-l-25" value="&lt;font style=&quot;font-size: 16px;&quot;&gt;dp（3,0）&lt;/font&gt;" style="rounded=1;whiteSpace=wrap;html=1;fillColor=#ffe6cc;strokeColor=#d79b00;align=center;flipH=1;flipV=1;" parent="1" vertex="1">
          <mxGeometry x="-275" y="504" width="110" height="40" as="geometry" />
        </mxCell>
        <mxCell id="QFRHChqrzQPd7RxqJ8-l-31" value="选+110" style="text;html=1;align=center;verticalAlign=middle;resizable=0;points=[];autosize=1;strokeColor=none;fillColor=none;" parent="1" vertex="1">
          <mxGeometry x="-628" y="306" width="56" height="26" as="geometry" />
        </mxCell>
        <mxCell id="QFRHChqrzQPd7RxqJ8-l-32" value="不选" style="text;html=1;align=center;verticalAlign=middle;resizable=0;points=[];autosize=1;strokeColor=none;fillColor=none;" parent="1" vertex="1">
          <mxGeometry x="-423" y="309" width="42" height="26" as="geometry" />
        </mxCell>
        <mxCell id="QFRHChqrzQPd7RxqJ8-l-34" style="rounded=0;orthogonalLoop=1;jettySize=auto;html=1;exitX=0;exitY=1;exitDx=0;exitDy=0;entryX=0.25;entryY=0;entryDx=0;entryDy=0;" parent="1" source="QFRHChqrzQPd7RxqJ8-l-14" target="QFRHChqrzQPd7RxqJ8-l-18" edge="1">
          <mxGeometry relative="1" as="geometry" />
        </mxCell>
        <mxCell id="QFRHChqrzQPd7RxqJ8-l-36" value="选+60" style="text;html=1;align=center;verticalAlign=middle;resizable=0;points=[];autosize=1;strokeColor=none;fillColor=none;flipV=1;" parent="1" vertex="1">
          <mxGeometry x="-1143" y="443" width="50" height="26" as="geometry" />
        </mxCell>
        <mxCell id="QFRHChqrzQPd7RxqJ8-l-37" value="不选" style="text;html=1;align=center;verticalAlign=middle;resizable=0;points=[];autosize=1;strokeColor=none;fillColor=none;flipV=1;" parent="1" vertex="1">
          <mxGeometry x="-949" y="443" width="42" height="26" as="geometry" />
        </mxCell>
        <mxCell id="QFRHChqrzQPd7RxqJ8-l-45" value="选+60" style="text;html=1;align=center;verticalAlign=middle;resizable=0;points=[];autosize=1;strokeColor=none;fillColor=none;flipV=1;" parent="1" vertex="1">
          <mxGeometry x="-760" y="445" width="50" height="26" as="geometry" />
        </mxCell>
        <mxCell id="QFRHChqrzQPd7RxqJ8-l-46" value="选+60" style="text;html=1;align=center;verticalAlign=middle;resizable=0;points=[];autosize=1;strokeColor=none;fillColor=none;flipV=1;" parent="1" vertex="1">
          <mxGeometry x="-442" y="445" width="50" height="26" as="geometry" />
        </mxCell>
        <mxCell id="QFRHChqrzQPd7RxqJ8-l-47" value="不选" style="text;html=1;align=center;verticalAlign=middle;resizable=0;points=[];autosize=1;strokeColor=none;fillColor=none;flipV=1;" parent="1" vertex="1">
          <mxGeometry x="-563" y="443" width="42" height="26" as="geometry" />
        </mxCell>
        <mxCell id="QFRHChqrzQPd7RxqJ8-l-50" value="不选" style="text;html=1;align=center;verticalAlign=middle;resizable=0;points=[];autosize=1;strokeColor=none;fillColor=none;flipV=1;" parent="1" vertex="1">
          <mxGeometry x="-243" y="441" width="42" height="26" as="geometry" />
        </mxCell>
        <mxCell id="_bcb0-fup-FFyFKvxs5I-2" value="Vertical Tree Layout" style="swimlane;startSize=20;horizontal=1;childLayout=treeLayout;horizontalTree=0;sortEdges=1;resizable=0;containerType=tree;fontSize=12;" parent="1" vertex="1">
          <mxGeometry x="-1979" y="306" width="686" height="370" as="geometry" />
        </mxCell>
        <mxCell id="_bcb0-fup-FFyFKvxs5I-3" value="&amp;nbsp; &amp;nbsp; [1,5] 20" style="whiteSpace=wrap;html=1;fillColor=none;strokeColor=default;" parent="_bcb0-fup-FFyFKvxs5I-2" vertex="1">
          <mxGeometry x="342" y="40" width="100" height="40" as="geometry" />
        </mxCell>
        <mxCell id="_bcb0-fup-FFyFKvxs5I-4" value="[1,3] 11" style="whiteSpace=wrap;html=1;fillColor=none;strokeColor=default;" parent="_bcb0-fup-FFyFKvxs5I-2" vertex="1">
          <mxGeometry x="188" y="130" width="100" height="40" as="geometry" />
        </mxCell>
        <mxCell id="_bcb0-fup-FFyFKvxs5I-5" value="" style="elbow=vertical;html=1;rounded=1;sourcePerimeterSpacing=0;targetPerimeterSpacing=0;startSize=6;endSize=6;" parent="_bcb0-fup-FFyFKvxs5I-2" source="_bcb0-fup-FFyFKvxs5I-3" target="_bcb0-fup-FFyFKvxs5I-4" edge="1">
          <mxGeometry relative="1" as="geometry" />
        </mxCell>
        <mxCell id="_bcb0-fup-FFyFKvxs5I-6" value="[4,5] 9" style="whiteSpace=wrap;html=1;" parent="_bcb0-fup-FFyFKvxs5I-2" vertex="1">
          <mxGeometry x="496" y="130" width="100" height="40" as="geometry" />
        </mxCell>
        <mxCell id="_bcb0-fup-FFyFKvxs5I-7" value="" style="elbow=vertical;html=1;rounded=1;sourcePerimeterSpacing=0;targetPerimeterSpacing=0;startSize=6;endSize=6;" parent="_bcb0-fup-FFyFKvxs5I-2" source="_bcb0-fup-FFyFKvxs5I-3" target="_bcb0-fup-FFyFKvxs5I-6" edge="1">
          <mxGeometry relative="1" as="geometry" />
        </mxCell>
        <mxCell id="_bcb0-fup-FFyFKvxs5I-16" value="" style="elbow=vertical;html=1;rounded=1;sourcePerimeterSpacing=0;targetPerimeterSpacing=0;startSize=6;endSize=6;" parent="_bcb0-fup-FFyFKvxs5I-2" source="_bcb0-fup-FFyFKvxs5I-4" target="_bcb0-fup-FFyFKvxs5I-17" edge="1">
          <mxGeometry relative="1" as="geometry">
            <mxPoint x="-2320.2" y="370" as="sourcePoint" />
          </mxGeometry>
        </mxCell>
        <mxCell id="_bcb0-fup-FFyFKvxs5I-17" value="[1,2] 7" style="whiteSpace=wrap;html=1;fillColor=default;strokeColor=default;" parent="_bcb0-fup-FFyFKvxs5I-2" vertex="1">
          <mxGeometry x="90" y="220" width="100" height="40" as="geometry" />
        </mxCell>
        <mxCell id="_bcb0-fup-FFyFKvxs5I-18" value="" style="elbow=vertical;html=1;rounded=1;sourcePerimeterSpacing=0;targetPerimeterSpacing=0;startSize=6;endSize=6;" parent="_bcb0-fup-FFyFKvxs5I-2" source="_bcb0-fup-FFyFKvxs5I-4" target="_bcb0-fup-FFyFKvxs5I-19" edge="1">
          <mxGeometry relative="1" as="geometry">
            <mxPoint x="-2320.2" y="370" as="sourcePoint" />
          </mxGeometry>
        </mxCell>
        <mxCell id="_bcb0-fup-FFyFKvxs5I-19" value="[3,3] 4" style="whiteSpace=wrap;html=1;" parent="_bcb0-fup-FFyFKvxs5I-2" vertex="1">
          <mxGeometry x="286" y="220" width="100" height="40" as="geometry" />
        </mxCell>
        <mxCell id="_bcb0-fup-FFyFKvxs5I-20" value="" style="elbow=vertical;html=1;rounded=1;sourcePerimeterSpacing=0;targetPerimeterSpacing=0;startSize=6;endSize=6;" parent="_bcb0-fup-FFyFKvxs5I-2" source="_bcb0-fup-FFyFKvxs5I-17" target="_bcb0-fup-FFyFKvxs5I-21" edge="1">
          <mxGeometry relative="1" as="geometry">
            <mxPoint x="-2266.2" y="460" as="sourcePoint" />
          </mxGeometry>
        </mxCell>
        <mxCell id="_bcb0-fup-FFyFKvxs5I-21" value="[1,1] 3" style="whiteSpace=wrap;html=1;" parent="_bcb0-fup-FFyFKvxs5I-2" vertex="1">
          <mxGeometry x="20" y="310" width="100" height="40" as="geometry" />
        </mxCell>
        <mxCell id="_bcb0-fup-FFyFKvxs5I-22" value="" style="elbow=vertical;html=1;rounded=1;sourcePerimeterSpacing=0;targetPerimeterSpacing=0;startSize=6;endSize=6;" parent="_bcb0-fup-FFyFKvxs5I-2" source="_bcb0-fup-FFyFKvxs5I-17" target="_bcb0-fup-FFyFKvxs5I-23" edge="1">
          <mxGeometry relative="1" as="geometry">
            <mxPoint x="-2266.2" y="460" as="sourcePoint" />
          </mxGeometry>
        </mxCell>
        <mxCell id="_bcb0-fup-FFyFKvxs5I-23" value="[2,2] 4" style="whiteSpace=wrap;html=1;" parent="_bcb0-fup-FFyFKvxs5I-2" vertex="1">
          <mxGeometry x="160" y="310" width="100" height="40" as="geometry" />
        </mxCell>
        <mxCell id="_bcb0-fup-FFyFKvxs5I-24" value="" style="elbow=vertical;html=1;rounded=1;sourcePerimeterSpacing=0;targetPerimeterSpacing=0;startSize=6;endSize=6;" parent="_bcb0-fup-FFyFKvxs5I-2" source="_bcb0-fup-FFyFKvxs5I-6" target="_bcb0-fup-FFyFKvxs5I-25" edge="1">
          <mxGeometry relative="1" as="geometry">
            <mxPoint x="-1851.2" y="370" as="sourcePoint" />
          </mxGeometry>
        </mxCell>
        <mxCell id="_bcb0-fup-FFyFKvxs5I-25" value="[4,4] 4" style="whiteSpace=wrap;html=1;" parent="_bcb0-fup-FFyFKvxs5I-2" vertex="1">
          <mxGeometry x="426" y="220" width="100" height="40" as="geometry" />
        </mxCell>
        <mxCell id="_bcb0-fup-FFyFKvxs5I-26" value="" style="elbow=vertical;html=1;rounded=1;sourcePerimeterSpacing=0;targetPerimeterSpacing=0;startSize=6;endSize=6;" parent="_bcb0-fup-FFyFKvxs5I-2" source="_bcb0-fup-FFyFKvxs5I-6" target="_bcb0-fup-FFyFKvxs5I-27" edge="1">
          <mxGeometry relative="1" as="geometry">
            <mxPoint x="-1849" y="370" as="sourcePoint" />
          </mxGeometry>
        </mxCell>
        <mxCell id="_bcb0-fup-FFyFKvxs5I-27" value="[5,5] 5" style="whiteSpace=wrap;html=1;" parent="_bcb0-fup-FFyFKvxs5I-2" vertex="1">
          <mxGeometry x="566" y="220" width="100" height="40" as="geometry" />
        </mxCell>
        <mxCell id="_bcb0-fup-FFyFKvxs5I-29" value="1" style="ellipse;whiteSpace=wrap;html=1;aspect=fixed;fillColor=#f8cecc;strokeColor=#b85450;" parent="_bcb0-fup-FFyFKvxs5I-2" vertex="1">
          <mxGeometry x="353" y="48.5" width="23" height="23" as="geometry" />
        </mxCell>
        <mxCell id="_bcb0-fup-FFyFKvxs5I-30" value="2" style="ellipse;whiteSpace=wrap;html=1;aspect=fixed;fillColor=#f8cecc;strokeColor=#b85450;" parent="_bcb0-fup-FFyFKvxs5I-2" vertex="1">
          <mxGeometry x="194" y="138.5" width="23" height="23" as="geometry" />
        </mxCell>
        <mxCell id="_bcb0-fup-FFyFKvxs5I-31" value="3" style="ellipse;whiteSpace=wrap;html=1;aspect=fixed;fillColor=#f8cecc;strokeColor=#b85450;" parent="_bcb0-fup-FFyFKvxs5I-2" vertex="1">
          <mxGeometry x="506" y="138.5" width="23" height="23" as="geometry" />
        </mxCell>
        <mxCell id="_bcb0-fup-FFyFKvxs5I-36" value="5" style="ellipse;whiteSpace=wrap;html=1;aspect=fixed;fillColor=#f8cecc;strokeColor=#b85450;" parent="_bcb0-fup-FFyFKvxs5I-2" vertex="1">
          <mxGeometry x="293" y="228.5" width="23" height="23" as="geometry" />
        </mxCell>
        <mxCell id="_bcb0-fup-FFyFKvxs5I-32" value="6" style="ellipse;whiteSpace=wrap;html=1;aspect=fixed;fillColor=#f8cecc;strokeColor=#b85450;" parent="_bcb0-fup-FFyFKvxs5I-2" vertex="1">
          <mxGeometry x="433" y="228.5" width="23" height="23" as="geometry" />
        </mxCell>
        <mxCell id="_bcb0-fup-FFyFKvxs5I-60" value="4" style="ellipse;whiteSpace=wrap;html=1;aspect=fixed;fillColor=#f8cecc;strokeColor=#b85450;" parent="_bcb0-fup-FFyFKvxs5I-2" vertex="1">
          <mxGeometry x="97" y="228.5" width="23" height="23" as="geometry" />
        </mxCell>
        <mxCell id="_bcb0-fup-FFyFKvxs5I-61" value="7" style="ellipse;whiteSpace=wrap;html=1;aspect=fixed;fillColor=#f8cecc;strokeColor=#b85450;" parent="_bcb0-fup-FFyFKvxs5I-2" vertex="1">
          <mxGeometry x="575" y="228.5" width="23" height="23" as="geometry" />
        </mxCell>
        <mxCell id="_bcb0-fup-FFyFKvxs5I-64" value="8" style="ellipse;whiteSpace=wrap;html=1;aspect=fixed;fillColor=#f8cecc;strokeColor=#b85450;" parent="_bcb0-fup-FFyFKvxs5I-2" vertex="1">
          <mxGeometry x="28" y="318.5" width="23" height="23" as="geometry" />
        </mxCell>
        <mxCell id="_bcb0-fup-FFyFKvxs5I-66" value="9" style="ellipse;whiteSpace=wrap;html=1;aspect=fixed;fillColor=#f8cecc;strokeColor=#b85450;" parent="_bcb0-fup-FFyFKvxs5I-2" vertex="1">
          <mxGeometry x="171" y="318.5" width="23" height="23" as="geometry" />
        </mxCell>
        <mxCell id="wHUjox2w2OE0-h4zFQn9-1" value="&lt;font face=&quot;Source Code Pro, Consolas, monospace&quot; color=&quot;#f8f8f2&quot;&gt;&lt;span style=&quot;font-size: 12.25px; white-space-collapse: preserve; background-color: rgb(35, 36, 31);&quot;&gt;3 5&lt;/span&gt;&lt;/font&gt;&lt;div&gt;&lt;font face=&quot;Source Code Pro, Consolas, monospace&quot; color=&quot;#f8f8f2&quot;&gt;&lt;span style=&quot;font-size: 12.25px; white-space-collapse: preserve; background-color: rgb(35, 36, 31);&quot;&gt;1 2&lt;/span&gt;&lt;/font&gt;&lt;/div&gt;&lt;div&gt;&lt;font face=&quot;Source Code Pro, Consolas, monospace&quot; color=&quot;#f8f8f2&quot;&gt;&lt;span style=&quot;font-size: 12.25px; white-space-collapse: preserve; background-color: rgb(35, 36, 31);&quot;&gt;2 4&lt;/span&gt;&lt;/font&gt;&lt;/div&gt;&lt;div&gt;&lt;font face=&quot;Source Code Pro, Consolas, monospace&quot; color=&quot;#f8f8f2&quot;&gt;&lt;span style=&quot;font-size: 12.25px; white-space-collapse: preserve; background-color: rgb(35, 36, 31);&quot;&gt;3 4&lt;/span&gt;&lt;/font&gt;&lt;/div&gt;" style="text;whiteSpace=wrap;html=1;" parent="1" vertex="1">
          <mxGeometry x="-2061.000476190476" y="864.9985714285714" width="48" height="81" as="geometry" />
        </mxCell>
        <mxCell id="wHUjox2w2OE0-h4zFQn9-2" value="Vertical Tree Layout" style="swimlane;startSize=20;horizontal=1;childLayout=treeLayout;horizontalTree=0;sortEdges=1;resizable=0;containerType=tree;fontSize=12;" parent="1" vertex="1">
          <mxGeometry x="-2229" y="815" width="1120" height="370" as="geometry" />
        </mxCell>
        <mxCell id="wHUjox2w2OE0-h4zFQn9-3" value="dfs(1,0)" style="whiteSpace=wrap;html=1;" parent="wHUjox2w2OE0-h4zFQn9-2" vertex="1">
          <mxGeometry x="510" y="40" width="100" height="40" as="geometry" />
        </mxCell>
        <mxCell id="wHUjox2w2OE0-h4zFQn9-4" value="dfs(2,0)" style="whiteSpace=wrap;html=1;" parent="wHUjox2w2OE0-h4zFQn9-2" vertex="1">
          <mxGeometry x="230" y="130" width="100" height="40" as="geometry" />
        </mxCell>
        <mxCell id="wHUjox2w2OE0-h4zFQn9-5" value="" style="elbow=vertical;html=1;rounded=1;sourcePerimeterSpacing=0;targetPerimeterSpacing=0;startSize=6;endSize=6;" parent="wHUjox2w2OE0-h4zFQn9-2" source="wHUjox2w2OE0-h4zFQn9-3" target="wHUjox2w2OE0-h4zFQn9-4" edge="1">
          <mxGeometry relative="1" as="geometry" />
        </mxCell>
        <mxCell id="wHUjox2w2OE0-h4zFQn9-6" value="dfs(2,1)" style="whiteSpace=wrap;html=1;" parent="wHUjox2w2OE0-h4zFQn9-2" vertex="1">
          <mxGeometry x="790" y="130" width="100" height="40" as="geometry" />
        </mxCell>
        <mxCell id="wHUjox2w2OE0-h4zFQn9-7" value="" style="elbow=vertical;html=1;rounded=1;sourcePerimeterSpacing=0;targetPerimeterSpacing=0;startSize=6;endSize=6;" parent="wHUjox2w2OE0-h4zFQn9-2" source="wHUjox2w2OE0-h4zFQn9-3" target="wHUjox2w2OE0-h4zFQn9-6" edge="1">
          <mxGeometry relative="1" as="geometry" />
        </mxCell>
        <mxCell id="wHUjox2w2OE0-h4zFQn9-8" value="" style="elbow=vertical;html=1;rounded=1;sourcePerimeterSpacing=0;targetPerimeterSpacing=0;startSize=6;endSize=6;" parent="wHUjox2w2OE0-h4zFQn9-2" source="wHUjox2w2OE0-h4zFQn9-4" target="wHUjox2w2OE0-h4zFQn9-9" edge="1">
          <mxGeometry relative="1" as="geometry">
            <mxPoint x="-2979" y="871" as="sourcePoint" />
          </mxGeometry>
        </mxCell>
        <mxCell id="wHUjox2w2OE0-h4zFQn9-9" value="dfs(3,0)" style="whiteSpace=wrap;html=1;" parent="wHUjox2w2OE0-h4zFQn9-2" vertex="1">
          <mxGeometry x="90" y="220" width="100" height="40" as="geometry" />
        </mxCell>
        <mxCell id="wHUjox2w2OE0-h4zFQn9-10" value="" style="elbow=vertical;html=1;rounded=1;sourcePerimeterSpacing=0;targetPerimeterSpacing=0;startSize=6;endSize=6;" parent="wHUjox2w2OE0-h4zFQn9-2" source="wHUjox2w2OE0-h4zFQn9-4" target="wHUjox2w2OE0-h4zFQn9-11" edge="1">
          <mxGeometry relative="1" as="geometry">
            <mxPoint x="-2979" y="871" as="sourcePoint" />
          </mxGeometry>
        </mxCell>
        <mxCell id="wHUjox2w2OE0-h4zFQn9-11" value="dfs(3,2)" style="whiteSpace=wrap;html=1;" parent="wHUjox2w2OE0-h4zFQn9-2" vertex="1">
          <mxGeometry x="370" y="220" width="100" height="40" as="geometry" />
        </mxCell>
        <mxCell id="wHUjox2w2OE0-h4zFQn9-12" value="" style="elbow=vertical;html=1;rounded=1;sourcePerimeterSpacing=0;targetPerimeterSpacing=0;startSize=6;endSize=6;" parent="wHUjox2w2OE0-h4zFQn9-2" source="wHUjox2w2OE0-h4zFQn9-6" target="wHUjox2w2OE0-h4zFQn9-13" edge="1">
          <mxGeometry relative="1" as="geometry">
            <mxPoint x="-2811" y="871" as="sourcePoint" />
          </mxGeometry>
        </mxCell>
        <mxCell id="wHUjox2w2OE0-h4zFQn9-13" value="dfs(3,1)" style="whiteSpace=wrap;html=1;" parent="wHUjox2w2OE0-h4zFQn9-2" vertex="1">
          <mxGeometry x="650" y="220" width="100" height="40" as="geometry" />
        </mxCell>
        <mxCell id="wHUjox2w2OE0-h4zFQn9-14" value="" style="elbow=vertical;html=1;rounded=1;sourcePerimeterSpacing=0;targetPerimeterSpacing=0;startSize=6;endSize=6;" parent="wHUjox2w2OE0-h4zFQn9-2" source="wHUjox2w2OE0-h4zFQn9-6" target="wHUjox2w2OE0-h4zFQn9-15" edge="1">
          <mxGeometry relative="1" as="geometry">
            <mxPoint x="-2811" y="871" as="sourcePoint" />
          </mxGeometry>
        </mxCell>
        <mxCell id="wHUjox2w2OE0-h4zFQn9-15" value="dfs(3,3)" style="whiteSpace=wrap;html=1;" parent="wHUjox2w2OE0-h4zFQn9-2" vertex="1">
          <mxGeometry x="930" y="220" width="100" height="40" as="geometry" />
        </mxCell>
        <mxCell id="wHUjox2w2OE0-h4zFQn9-16" value="" style="elbow=vertical;html=1;rounded=1;sourcePerimeterSpacing=0;targetPerimeterSpacing=0;startSize=6;endSize=6;" parent="wHUjox2w2OE0-h4zFQn9-2" source="wHUjox2w2OE0-h4zFQn9-9" target="wHUjox2w2OE0-h4zFQn9-17" edge="1">
          <mxGeometry relative="1" as="geometry">
            <mxPoint x="-2741" y="961" as="sourcePoint" />
          </mxGeometry>
        </mxCell>
        <mxCell id="wHUjox2w2OE0-h4zFQn9-17" value="dfs(4,0)" style="whiteSpace=wrap;html=1;" parent="wHUjox2w2OE0-h4zFQn9-2" vertex="1">
          <mxGeometry x="20" y="310" width="100" height="40" as="geometry" />
        </mxCell>
        <mxCell id="wHUjox2w2OE0-h4zFQn9-18" value="" style="elbow=vertical;html=1;rounded=1;sourcePerimeterSpacing=0;targetPerimeterSpacing=0;startSize=6;endSize=6;" parent="wHUjox2w2OE0-h4zFQn9-2" source="wHUjox2w2OE0-h4zFQn9-9" target="wHUjox2w2OE0-h4zFQn9-19" edge="1">
          <mxGeometry relative="1" as="geometry">
            <mxPoint x="-2741" y="961" as="sourcePoint" />
          </mxGeometry>
        </mxCell>
        <mxCell id="wHUjox2w2OE0-h4zFQn9-19" value="dfs(4,3)" style="whiteSpace=wrap;html=1;" parent="wHUjox2w2OE0-h4zFQn9-2" vertex="1">
          <mxGeometry x="160" y="310" width="100" height="40" as="geometry" />
        </mxCell>
        <mxCell id="wHUjox2w2OE0-h4zFQn9-20" value="" style="elbow=vertical;html=1;rounded=1;sourcePerimeterSpacing=0;targetPerimeterSpacing=0;startSize=6;endSize=6;" parent="wHUjox2w2OE0-h4zFQn9-2" source="wHUjox2w2OE0-h4zFQn9-11" target="wHUjox2w2OE0-h4zFQn9-21" edge="1">
          <mxGeometry relative="1" as="geometry">
            <mxPoint x="-2433" y="961" as="sourcePoint" />
          </mxGeometry>
        </mxCell>
        <mxCell id="wHUjox2w2OE0-h4zFQn9-21" value="dfs(4,2)" style="whiteSpace=wrap;html=1;" parent="wHUjox2w2OE0-h4zFQn9-2" vertex="1">
          <mxGeometry x="300" y="310" width="100" height="40" as="geometry" />
        </mxCell>
        <mxCell id="wHUjox2w2OE0-h4zFQn9-22" value="" style="elbow=vertical;html=1;rounded=1;sourcePerimeterSpacing=0;targetPerimeterSpacing=0;startSize=6;endSize=6;" parent="wHUjox2w2OE0-h4zFQn9-2" source="wHUjox2w2OE0-h4zFQn9-11" target="wHUjox2w2OE0-h4zFQn9-23" edge="1">
          <mxGeometry relative="1" as="geometry">
            <mxPoint x="-2436.5" y="961" as="sourcePoint" />
          </mxGeometry>
        </mxCell>
        <mxCell id="wHUjox2w2OE0-h4zFQn9-23" value="dfs(4,5)" style="whiteSpace=wrap;html=1;" parent="wHUjox2w2OE0-h4zFQn9-2" vertex="1">
          <mxGeometry x="440" y="310" width="100" height="40" as="geometry" />
        </mxCell>
        <mxCell id="wHUjox2w2OE0-h4zFQn9-24" value="" style="elbow=vertical;html=1;rounded=1;sourcePerimeterSpacing=0;targetPerimeterSpacing=0;startSize=6;endSize=6;" parent="wHUjox2w2OE0-h4zFQn9-2" source="wHUjox2w2OE0-h4zFQn9-13" target="wHUjox2w2OE0-h4zFQn9-25" edge="1">
          <mxGeometry relative="1" as="geometry">
            <mxPoint x="-1663" y="961" as="sourcePoint" />
          </mxGeometry>
        </mxCell>
        <mxCell id="wHUjox2w2OE0-h4zFQn9-25" value="dfs(4,1)" style="whiteSpace=wrap;html=1;" parent="wHUjox2w2OE0-h4zFQn9-2" vertex="1">
          <mxGeometry x="580" y="310" width="100" height="40" as="geometry" />
        </mxCell>
        <mxCell id="wHUjox2w2OE0-h4zFQn9-26" value="" style="elbow=vertical;html=1;rounded=1;sourcePerimeterSpacing=0;targetPerimeterSpacing=0;startSize=6;endSize=6;" parent="wHUjox2w2OE0-h4zFQn9-2" source="wHUjox2w2OE0-h4zFQn9-13" target="wHUjox2w2OE0-h4zFQn9-27" edge="1">
          <mxGeometry relative="1" as="geometry">
            <mxPoint x="-1656" y="961" as="sourcePoint" />
          </mxGeometry>
        </mxCell>
        <mxCell id="wHUjox2w2OE0-h4zFQn9-27" value="dfs(4,4)" style="whiteSpace=wrap;html=1;" parent="wHUjox2w2OE0-h4zFQn9-2" vertex="1">
          <mxGeometry x="720" y="310" width="100" height="40" as="geometry" />
        </mxCell>
        <mxCell id="wHUjox2w2OE0-h4zFQn9-28" value="" style="elbow=vertical;html=1;rounded=1;sourcePerimeterSpacing=0;targetPerimeterSpacing=0;startSize=6;endSize=6;" parent="wHUjox2w2OE0-h4zFQn9-2" source="wHUjox2w2OE0-h4zFQn9-15" target="wHUjox2w2OE0-h4zFQn9-29" edge="1">
          <mxGeometry relative="1" as="geometry">
            <mxPoint x="-1473" y="986" as="sourcePoint" />
          </mxGeometry>
        </mxCell>
        <mxCell id="wHUjox2w2OE0-h4zFQn9-29" value="dfs(4,3)" style="whiteSpace=wrap;html=1;" parent="wHUjox2w2OE0-h4zFQn9-2" vertex="1">
          <mxGeometry x="860" y="310" width="100" height="40" as="geometry" />
        </mxCell>
        <mxCell id="wHUjox2w2OE0-h4zFQn9-30" value="" style="elbow=vertical;html=1;rounded=1;sourcePerimeterSpacing=0;targetPerimeterSpacing=0;startSize=6;endSize=6;" parent="wHUjox2w2OE0-h4zFQn9-2" source="wHUjox2w2OE0-h4zFQn9-15" target="wHUjox2w2OE0-h4zFQn9-31" edge="1">
          <mxGeometry relative="1" as="geometry">
            <mxPoint x="-1469.5" y="986" as="sourcePoint" />
          </mxGeometry>
        </mxCell>
        <mxCell id="wHUjox2w2OE0-h4zFQn9-31" value="Child 2" style="whiteSpace=wrap;html=1;" parent="wHUjox2w2OE0-h4zFQn9-2" vertex="1">
          <mxGeometry x="1000" y="310" width="100" height="40" as="geometry" />
        </mxCell>
        <mxCell id="wHUjox2w2OE0-h4zFQn9-32" value="不选" style="text;html=1;align=center;verticalAlign=middle;resizable=0;points=[];autosize=1;strokeColor=none;fillColor=none;" parent="1" vertex="1">
          <mxGeometry x="-1828" y="888" width="42" height="26" as="geometry" />
        </mxCell>
        <mxCell id="wHUjox2w2OE0-h4zFQn9-33" value="选" style="text;html=1;align=center;verticalAlign=middle;resizable=0;points=[];autosize=1;strokeColor=none;fillColor=none;" parent="1" vertex="1">
          <mxGeometry x="-1536" y="887" width="30" height="26" as="geometry" />
        </mxCell>
        <mxCell id="Y_F8nXt43w0Cvml4_Kj7-1" value="" style="endArrow=classic;html=1;rounded=0;" parent="1" edge="1">
          <mxGeometry width="50" height="50" relative="1" as="geometry">
            <mxPoint x="-1467" y="1782" as="sourcePoint" />
            <mxPoint x="-1254" y="1782" as="targetPoint" />
          </mxGeometry>
        </mxCell>
        <mxCell id="Y_F8nXt43w0Cvml4_Kj7-2" value="2 3 7 4 5 1" style="text;html=1;align=center;verticalAlign=middle;resizable=0;points=[];autosize=1;strokeColor=none;fillColor=none;" parent="1" vertex="1">
          <mxGeometry x="-1471" y="1650" width="75" height="26" as="geometry" />
        </mxCell>
        <mxCell id="Y_F8nXt43w0Cvml4_Kj7-5" value="2 1 4 -3 1 -4" style="text;html=1;align=center;verticalAlign=middle;resizable=0;points=[];autosize=1;strokeColor=none;fillColor=none;" parent="1" vertex="1">
          <mxGeometry x="-1393" y="1650" width="83" height="26" as="geometry" />
        </mxCell>
        <mxCell id="Y_F8nXt43w0Cvml4_Kj7-7" value="" style="rounded=0;whiteSpace=wrap;html=1;" parent="1" vertex="1">
          <mxGeometry x="-1467" y="1732" width="18" height="49" as="geometry" />
        </mxCell>
        <mxCell id="Y_F8nXt43w0Cvml4_Kj7-8" value="" style="rounded=0;whiteSpace=wrap;html=1;" parent="1" vertex="1">
          <mxGeometry x="-1449" y="1756" width="18" height="25" as="geometry" />
        </mxCell>
        <mxCell id="Y_F8nXt43w0Cvml4_Kj7-9" value="" style="rounded=0;whiteSpace=wrap;html=1;" parent="1" vertex="1">
          <mxGeometry x="-1413" y="1783" width="18" height="59" as="geometry" />
        </mxCell>
        <mxCell id="Y_F8nXt43w0Cvml4_Kj7-10" value="" style="rounded=0;whiteSpace=wrap;html=1;" parent="1" vertex="1">
          <mxGeometry x="-1431" y="1705" width="18" height="76" as="geometry" />
        </mxCell>
        <mxCell id="Y_F8nXt43w0Cvml4_Kj7-11" value="" style="rounded=0;whiteSpace=wrap;html=1;" parent="1" vertex="1">
          <mxGeometry x="-1395" y="1756" width="18" height="25" as="geometry" />
        </mxCell>
        <mxCell id="LI9qLubYSbnP-WvMmO36-1" value="Vertical Tree Layout" style="swimlane;startSize=20;horizontal=1;childLayout=treeLayout;horizontalTree=0;sortEdges=1;resizable=0;containerType=tree;fontSize=12;" parent="1" vertex="1">
          <mxGeometry x="-2177" y="1861" width="980" height="370" as="geometry" />
        </mxCell>
        <mxCell id="LI9qLubYSbnP-WvMmO36-2" value="dfs(1,0)" style="whiteSpace=wrap;html=1;" parent="LI9qLubYSbnP-WvMmO36-1" vertex="1">
          <mxGeometry x="492.5" y="40" width="100" height="40" as="geometry" />
        </mxCell>
        <mxCell id="LI9qLubYSbnP-WvMmO36-3" value="dfs(2,0)" style="whiteSpace=wrap;html=1;" parent="LI9qLubYSbnP-WvMmO36-1" vertex="1">
          <mxGeometry x="230" y="130" width="100" height="40" as="geometry" />
        </mxCell>
        <mxCell id="LI9qLubYSbnP-WvMmO36-4" value="" style="elbow=vertical;html=1;rounded=1;sourcePerimeterSpacing=0;targetPerimeterSpacing=0;startSize=6;endSize=6;" parent="LI9qLubYSbnP-WvMmO36-1" source="LI9qLubYSbnP-WvMmO36-2" target="LI9qLubYSbnP-WvMmO36-3" edge="1">
          <mxGeometry relative="1" as="geometry" />
        </mxCell>
        <mxCell id="LI9qLubYSbnP-WvMmO36-5" value="dfs(2,1)" style="whiteSpace=wrap;html=1;" parent="LI9qLubYSbnP-WvMmO36-1" vertex="1">
          <mxGeometry x="755" y="130" width="100" height="40" as="geometry" />
        </mxCell>
        <mxCell id="LI9qLubYSbnP-WvMmO36-6" value="" style="elbow=vertical;html=1;rounded=1;sourcePerimeterSpacing=0;targetPerimeterSpacing=0;startSize=6;endSize=6;" parent="LI9qLubYSbnP-WvMmO36-1" source="LI9qLubYSbnP-WvMmO36-2" target="LI9qLubYSbnP-WvMmO36-5" edge="1">
          <mxGeometry relative="1" as="geometry" />
        </mxCell>
        <mxCell id="LI9qLubYSbnP-WvMmO36-8" value="" style="elbow=vertical;html=1;rounded=1;sourcePerimeterSpacing=0;targetPerimeterSpacing=0;startSize=6;endSize=6;" parent="LI9qLubYSbnP-WvMmO36-1" source="LI9qLubYSbnP-WvMmO36-3" target="LI9qLubYSbnP-WvMmO36-9" edge="1">
          <mxGeometry relative="1" as="geometry">
            <mxPoint x="-3523.7" y="1763" as="sourcePoint" />
          </mxGeometry>
        </mxCell>
        <mxCell id="LI9qLubYSbnP-WvMmO36-9" value="dfs(3,0)" style="whiteSpace=wrap;html=1;" parent="LI9qLubYSbnP-WvMmO36-1" vertex="1">
          <mxGeometry x="90" y="220" width="100" height="40" as="geometry" />
        </mxCell>
        <mxCell id="LI9qLubYSbnP-WvMmO36-10" value="" style="elbow=vertical;html=1;rounded=1;sourcePerimeterSpacing=0;targetPerimeterSpacing=0;startSize=6;endSize=6;" parent="LI9qLubYSbnP-WvMmO36-1" source="LI9qLubYSbnP-WvMmO36-3" target="LI9qLubYSbnP-WvMmO36-11" edge="1">
          <mxGeometry relative="1" as="geometry">
            <mxPoint x="-3523.7" y="1763" as="sourcePoint" />
          </mxGeometry>
        </mxCell>
        <mxCell id="LI9qLubYSbnP-WvMmO36-11" value="dfs(3,2)" style="whiteSpace=wrap;html=1;" parent="LI9qLubYSbnP-WvMmO36-1" vertex="1">
          <mxGeometry x="370" y="220" width="100" height="40" as="geometry" />
        </mxCell>
        <mxCell id="LI9qLubYSbnP-WvMmO36-12" value="" style="elbow=vertical;html=1;rounded=1;sourcePerimeterSpacing=0;targetPerimeterSpacing=0;startSize=6;endSize=6;" parent="LI9qLubYSbnP-WvMmO36-1" source="LI9qLubYSbnP-WvMmO36-9" target="LI9qLubYSbnP-WvMmO36-13" edge="1">
          <mxGeometry relative="1" as="geometry">
            <mxPoint x="-3453.7" y="1853" as="sourcePoint" />
          </mxGeometry>
        </mxCell>
        <mxCell id="LI9qLubYSbnP-WvMmO36-13" value="dfs(4,0)" style="whiteSpace=wrap;html=1;" parent="LI9qLubYSbnP-WvMmO36-1" vertex="1">
          <mxGeometry x="20" y="310" width="100" height="40" as="geometry" />
        </mxCell>
        <mxCell id="LI9qLubYSbnP-WvMmO36-14" value="" style="elbow=vertical;html=1;rounded=1;sourcePerimeterSpacing=0;targetPerimeterSpacing=0;startSize=6;endSize=6;" parent="LI9qLubYSbnP-WvMmO36-1" source="LI9qLubYSbnP-WvMmO36-9" target="LI9qLubYSbnP-WvMmO36-15" edge="1">
          <mxGeometry relative="1" as="geometry">
            <mxPoint x="-3453.7" y="1853" as="sourcePoint" />
          </mxGeometry>
        </mxCell>
        <mxCell id="LI9qLubYSbnP-WvMmO36-15" value="dfs(4,3)" style="whiteSpace=wrap;html=1;" parent="LI9qLubYSbnP-WvMmO36-1" vertex="1">
          <mxGeometry x="160" y="310" width="100" height="40" as="geometry" />
        </mxCell>
        <mxCell id="LI9qLubYSbnP-WvMmO36-20" value="" style="elbow=vertical;html=1;rounded=1;sourcePerimeterSpacing=0;targetPerimeterSpacing=0;startSize=6;endSize=6;" parent="LI9qLubYSbnP-WvMmO36-1" source="LI9qLubYSbnP-WvMmO36-11" target="LI9qLubYSbnP-WvMmO36-21" edge="1">
          <mxGeometry relative="1" as="geometry">
            <mxPoint x="-3149.7" y="1853" as="sourcePoint" />
          </mxGeometry>
        </mxCell>
        <mxCell id="LI9qLubYSbnP-WvMmO36-21" value="dfs(4,2)" style="whiteSpace=wrap;html=1;" parent="LI9qLubYSbnP-WvMmO36-1" vertex="1">
          <mxGeometry x="300" y="310" width="100" height="40" as="geometry" />
        </mxCell>
        <mxCell id="LI9qLubYSbnP-WvMmO36-22" value="" style="elbow=vertical;html=1;rounded=1;sourcePerimeterSpacing=0;targetPerimeterSpacing=0;startSize=6;endSize=6;" parent="LI9qLubYSbnP-WvMmO36-1" source="LI9qLubYSbnP-WvMmO36-11" target="LI9qLubYSbnP-WvMmO36-23" edge="1">
          <mxGeometry relative="1" as="geometry">
            <mxPoint x="-3151.5" y="1853" as="sourcePoint" />
          </mxGeometry>
        </mxCell>
        <mxCell id="LI9qLubYSbnP-WvMmO36-23" value="dfs(4,5)" style="whiteSpace=wrap;html=1;" parent="LI9qLubYSbnP-WvMmO36-1" vertex="1">
          <mxGeometry x="440" y="310" width="100" height="40" as="geometry" />
        </mxCell>
        <mxCell id="LI9qLubYSbnP-WvMmO36-24" value="" style="elbow=vertical;html=1;rounded=1;sourcePerimeterSpacing=0;targetPerimeterSpacing=0;startSize=6;endSize=6;" parent="LI9qLubYSbnP-WvMmO36-1" source="LI9qLubYSbnP-WvMmO36-5" target="LI9qLubYSbnP-WvMmO36-25" edge="1">
          <mxGeometry relative="1" as="geometry">
            <mxPoint x="-2866.5" y="1941" as="sourcePoint" />
          </mxGeometry>
        </mxCell>
        <mxCell id="LI9qLubYSbnP-WvMmO36-25" value="dfs(3,1)" style="whiteSpace=wrap;html=1;" parent="LI9qLubYSbnP-WvMmO36-1" vertex="1">
          <mxGeometry x="650" y="220" width="100" height="40" as="geometry" />
        </mxCell>
        <mxCell id="LI9qLubYSbnP-WvMmO36-26" value="" style="elbow=vertical;html=1;rounded=1;sourcePerimeterSpacing=0;targetPerimeterSpacing=0;startSize=6;endSize=6;" parent="LI9qLubYSbnP-WvMmO36-1" source="LI9qLubYSbnP-WvMmO36-5" target="LI9qLubYSbnP-WvMmO36-27" edge="1">
          <mxGeometry relative="1" as="geometry">
            <mxPoint x="-2479.5" y="1941" as="sourcePoint" />
          </mxGeometry>
        </mxCell>
        <mxCell id="LI9qLubYSbnP-WvMmO36-27" value="dfs(3,3)" style="whiteSpace=wrap;html=1;" parent="LI9qLubYSbnP-WvMmO36-1" vertex="1">
          <mxGeometry x="860" y="220" width="100" height="40" as="geometry" />
        </mxCell>
        <mxCell id="LI9qLubYSbnP-WvMmO36-28" value="" style="elbow=vertical;html=1;rounded=1;sourcePerimeterSpacing=0;targetPerimeterSpacing=0;startSize=6;endSize=6;" parent="LI9qLubYSbnP-WvMmO36-1" source="LI9qLubYSbnP-WvMmO36-25" target="LI9qLubYSbnP-WvMmO36-29" edge="1">
          <mxGeometry relative="1" as="geometry">
            <mxPoint x="-1916.5" y="2031" as="sourcePoint" />
          </mxGeometry>
        </mxCell>
        <mxCell id="LI9qLubYSbnP-WvMmO36-29" value="dfs(4,1)" style="whiteSpace=wrap;html=1;" parent="LI9qLubYSbnP-WvMmO36-1" vertex="1">
          <mxGeometry x="580" y="310" width="100" height="40" as="geometry" />
        </mxCell>
        <mxCell id="LI9qLubYSbnP-WvMmO36-30" value="" style="elbow=vertical;html=1;rounded=1;sourcePerimeterSpacing=0;targetPerimeterSpacing=0;startSize=6;endSize=6;" parent="LI9qLubYSbnP-WvMmO36-1" source="LI9qLubYSbnP-WvMmO36-25" target="LI9qLubYSbnP-WvMmO36-31" edge="1">
          <mxGeometry relative="1" as="geometry">
            <mxPoint x="-1909.5" y="2031" as="sourcePoint" />
          </mxGeometry>
        </mxCell>
        <mxCell id="LI9qLubYSbnP-WvMmO36-31" value="dfs(4,4)" style="whiteSpace=wrap;html=1;" parent="LI9qLubYSbnP-WvMmO36-1" vertex="1">
          <mxGeometry x="720" y="310" width="100" height="40" as="geometry" />
        </mxCell>
        <mxCell id="LI9qLubYSbnP-WvMmO36-32" value="" style="elbow=vertical;html=1;rounded=1;sourcePerimeterSpacing=0;targetPerimeterSpacing=0;startSize=6;endSize=6;" parent="LI9qLubYSbnP-WvMmO36-1" source="LI9qLubYSbnP-WvMmO36-27" target="LI9qLubYSbnP-WvMmO36-33" edge="1">
          <mxGeometry relative="1" as="geometry">
            <mxPoint x="-1353.5" y="2031" as="sourcePoint" />
          </mxGeometry>
        </mxCell>
        <mxCell id="LI9qLubYSbnP-WvMmO36-33" value="dfs(4,3)" style="whiteSpace=wrap;html=1;" parent="LI9qLubYSbnP-WvMmO36-1" vertex="1">
          <mxGeometry x="860" y="310" width="100" height="40" as="geometry" />
        </mxCell>
        <mxCell id="LI9qLubYSbnP-WvMmO36-7" value="&lt;p style=&quot;margin-top:0px; margin-bottom:0px; margin-left:0px; margin-right:0px; -qt-block-indent:0; text-indent:0px;&quot;&gt;3 5&lt;/p&gt;&#xa;&lt;p style=&quot;margin-top:0px; margin-bottom:0px; margin-left:0px; margin-right:0px; -qt-block-indent:0; text-indent:0px;&quot;&gt;1 2&lt;/p&gt;&#xa;&lt;p style=&quot;margin-top:0px; margin-bottom:0px; margin-left:0px; margin-right:0px; -qt-block-indent:0; text-indent:0px;&quot;&gt;2 4&lt;/p&gt;&#xa;&lt;p style=&quot;margin-top:0px; margin-bottom:0px; margin-left:0px; margin-right:0px; -qt-block-indent:0; text-indent:0px;&quot;&gt;3 4&lt;/p&gt;&#xa;&lt;p style=&quot;-qt-paragraph-type:empty; margin-top:0px; margin-bottom:0px; margin-left:0px; margin-right:0px; -qt-block-indent:0; text-indent:0px;&quot;&gt;&lt;br&gt;&lt;/p&gt;" style="text;whiteSpace=wrap;html=1;" parent="1" vertex="1">
          <mxGeometry x="-2244" y="1761" width="45" height="267" as="geometry" />
        </mxCell>
        <mxCell id="VqH0-HbPMbV4p8qkRdue-1" value="" style="shape=table;startSize=0;container=1;collapsible=0;childLayout=tableLayout;" parent="1" vertex="1">
          <mxGeometry x="-1794" y="2781" width="354" height="254" as="geometry" />
        </mxCell>
        <mxCell id="VqH0-HbPMbV4p8qkRdue-2" value="" style="shape=tableRow;horizontal=0;startSize=0;swimlaneHead=0;swimlaneBody=0;strokeColor=inherit;top=0;left=0;bottom=0;right=0;collapsible=0;dropTarget=0;fillColor=none;points=[[0,0.5],[1,0.5]];portConstraint=eastwest;" parent="VqH0-HbPMbV4p8qkRdue-1" vertex="1">
          <mxGeometry width="354" height="42" as="geometry" />
        </mxCell>
        <mxCell id="VqH0-HbPMbV4p8qkRdue-3" value="" style="shape=partialRectangle;html=1;whiteSpace=wrap;connectable=0;strokeColor=inherit;overflow=hidden;fillColor=none;top=0;left=0;bottom=0;right=0;pointerEvents=1;" parent="VqH0-HbPMbV4p8qkRdue-2" vertex="1">
          <mxGeometry width="59" height="42" as="geometry">
            <mxRectangle width="59" height="42" as="alternateBounds" />
          </mxGeometry>
        </mxCell>
        <mxCell id="VqH0-HbPMbV4p8qkRdue-4" value="" style="shape=partialRectangle;html=1;whiteSpace=wrap;connectable=0;strokeColor=inherit;overflow=hidden;fillColor=none;top=0;left=0;bottom=0;right=0;pointerEvents=1;" parent="VqH0-HbPMbV4p8qkRdue-2" vertex="1">
          <mxGeometry x="59" width="59" height="42" as="geometry">
            <mxRectangle width="59" height="42" as="alternateBounds" />
          </mxGeometry>
        </mxCell>
        <mxCell id="VqH0-HbPMbV4p8qkRdue-5" value="" style="shape=partialRectangle;html=1;whiteSpace=wrap;connectable=0;strokeColor=inherit;overflow=hidden;fillColor=none;top=0;left=0;bottom=0;right=0;pointerEvents=1;" parent="VqH0-HbPMbV4p8qkRdue-2" vertex="1">
          <mxGeometry x="118" width="59" height="42" as="geometry">
            <mxRectangle width="59" height="42" as="alternateBounds" />
          </mxGeometry>
        </mxCell>
        <mxCell id="VqH0-HbPMbV4p8qkRdue-6" value="" style="shape=partialRectangle;html=1;whiteSpace=wrap;connectable=0;strokeColor=inherit;overflow=hidden;fillColor=none;top=0;left=0;bottom=0;right=0;pointerEvents=1;" parent="VqH0-HbPMbV4p8qkRdue-2" vertex="1">
          <mxGeometry x="177" width="59" height="42" as="geometry">
            <mxRectangle width="59" height="42" as="alternateBounds" />
          </mxGeometry>
        </mxCell>
        <mxCell id="VqH0-HbPMbV4p8qkRdue-7" value="" style="shape=partialRectangle;html=1;whiteSpace=wrap;connectable=0;strokeColor=inherit;overflow=hidden;fillColor=none;top=0;left=0;bottom=0;right=0;pointerEvents=1;" parent="VqH0-HbPMbV4p8qkRdue-2" vertex="1">
          <mxGeometry x="236" width="59" height="42" as="geometry">
            <mxRectangle width="59" height="42" as="alternateBounds" />
          </mxGeometry>
        </mxCell>
        <mxCell id="VqH0-HbPMbV4p8qkRdue-8" value="" style="shape=partialRectangle;html=1;whiteSpace=wrap;connectable=0;strokeColor=inherit;overflow=hidden;fillColor=none;top=0;left=0;bottom=0;right=0;pointerEvents=1;" parent="VqH0-HbPMbV4p8qkRdue-2" vertex="1">
          <mxGeometry x="295" width="59" height="42" as="geometry">
            <mxRectangle width="59" height="42" as="alternateBounds" />
          </mxGeometry>
        </mxCell>
        <mxCell id="VqH0-HbPMbV4p8qkRdue-9" value="" style="shape=tableRow;horizontal=0;startSize=0;swimlaneHead=0;swimlaneBody=0;strokeColor=inherit;top=0;left=0;bottom=0;right=0;collapsible=0;dropTarget=0;fillColor=none;points=[[0,0.5],[1,0.5]];portConstraint=eastwest;" parent="VqH0-HbPMbV4p8qkRdue-1" vertex="1">
          <mxGeometry y="42" width="354" height="43" as="geometry" />
        </mxCell>
        <mxCell id="VqH0-HbPMbV4p8qkRdue-10" value="" style="shape=partialRectangle;html=1;whiteSpace=wrap;connectable=0;strokeColor=inherit;overflow=hidden;fillColor=none;top=0;left=0;bottom=0;right=0;pointerEvents=1;" parent="VqH0-HbPMbV4p8qkRdue-9" vertex="1">
          <mxGeometry width="59" height="43" as="geometry">
            <mxRectangle width="59" height="43" as="alternateBounds" />
          </mxGeometry>
        </mxCell>
        <mxCell id="VqH0-HbPMbV4p8qkRdue-11" value="" style="shape=partialRectangle;html=1;whiteSpace=wrap;connectable=0;strokeColor=inherit;overflow=hidden;fillColor=none;top=0;left=0;bottom=0;right=0;pointerEvents=1;" parent="VqH0-HbPMbV4p8qkRdue-9" vertex="1">
          <mxGeometry x="59" width="59" height="43" as="geometry">
            <mxRectangle width="59" height="43" as="alternateBounds" />
          </mxGeometry>
        </mxCell>
        <mxCell id="VqH0-HbPMbV4p8qkRdue-12" value="" style="shape=partialRectangle;html=1;whiteSpace=wrap;connectable=0;strokeColor=inherit;overflow=hidden;fillColor=none;top=0;left=0;bottom=0;right=0;pointerEvents=1;" parent="VqH0-HbPMbV4p8qkRdue-9" vertex="1">
          <mxGeometry x="118" width="59" height="43" as="geometry">
            <mxRectangle width="59" height="43" as="alternateBounds" />
          </mxGeometry>
        </mxCell>
        <mxCell id="VqH0-HbPMbV4p8qkRdue-13" value="" style="shape=partialRectangle;html=1;whiteSpace=wrap;connectable=0;strokeColor=inherit;overflow=hidden;fillColor=none;top=0;left=0;bottom=0;right=0;pointerEvents=1;" parent="VqH0-HbPMbV4p8qkRdue-9" vertex="1">
          <mxGeometry x="177" width="59" height="43" as="geometry">
            <mxRectangle width="59" height="43" as="alternateBounds" />
          </mxGeometry>
        </mxCell>
        <mxCell id="VqH0-HbPMbV4p8qkRdue-14" value="" style="shape=partialRectangle;html=1;whiteSpace=wrap;connectable=0;strokeColor=inherit;overflow=hidden;fillColor=none;top=0;left=0;bottom=0;right=0;pointerEvents=1;" parent="VqH0-HbPMbV4p8qkRdue-9" vertex="1">
          <mxGeometry x="236" width="59" height="43" as="geometry">
            <mxRectangle width="59" height="43" as="alternateBounds" />
          </mxGeometry>
        </mxCell>
        <mxCell id="VqH0-HbPMbV4p8qkRdue-15" value="" style="shape=partialRectangle;html=1;whiteSpace=wrap;connectable=0;strokeColor=inherit;overflow=hidden;fillColor=none;top=0;left=0;bottom=0;right=0;pointerEvents=1;" parent="VqH0-HbPMbV4p8qkRdue-9" vertex="1">
          <mxGeometry x="295" width="59" height="43" as="geometry">
            <mxRectangle width="59" height="43" as="alternateBounds" />
          </mxGeometry>
        </mxCell>
        <mxCell id="VqH0-HbPMbV4p8qkRdue-16" value="" style="shape=tableRow;horizontal=0;startSize=0;swimlaneHead=0;swimlaneBody=0;strokeColor=inherit;top=0;left=0;bottom=0;right=0;collapsible=0;dropTarget=0;fillColor=none;points=[[0,0.5],[1,0.5]];portConstraint=eastwest;" parent="VqH0-HbPMbV4p8qkRdue-1" vertex="1">
          <mxGeometry y="85" width="354" height="42" as="geometry" />
        </mxCell>
        <mxCell id="VqH0-HbPMbV4p8qkRdue-17" value="" style="shape=partialRectangle;html=1;whiteSpace=wrap;connectable=0;strokeColor=inherit;overflow=hidden;fillColor=none;top=0;left=0;bottom=0;right=0;pointerEvents=1;" parent="VqH0-HbPMbV4p8qkRdue-16" vertex="1">
          <mxGeometry width="59" height="42" as="geometry">
            <mxRectangle width="59" height="42" as="alternateBounds" />
          </mxGeometry>
        </mxCell>
        <mxCell id="VqH0-HbPMbV4p8qkRdue-18" value="" style="shape=partialRectangle;html=1;whiteSpace=wrap;connectable=0;strokeColor=inherit;overflow=hidden;fillColor=none;top=0;left=0;bottom=0;right=0;pointerEvents=1;" parent="VqH0-HbPMbV4p8qkRdue-16" vertex="1">
          <mxGeometry x="59" width="59" height="42" as="geometry">
            <mxRectangle width="59" height="42" as="alternateBounds" />
          </mxGeometry>
        </mxCell>
        <mxCell id="VqH0-HbPMbV4p8qkRdue-19" value="" style="shape=partialRectangle;html=1;whiteSpace=wrap;connectable=0;strokeColor=inherit;overflow=hidden;fillColor=none;top=0;left=0;bottom=0;right=0;pointerEvents=1;" parent="VqH0-HbPMbV4p8qkRdue-16" vertex="1">
          <mxGeometry x="118" width="59" height="42" as="geometry">
            <mxRectangle width="59" height="42" as="alternateBounds" />
          </mxGeometry>
        </mxCell>
        <mxCell id="VqH0-HbPMbV4p8qkRdue-20" value="" style="shape=partialRectangle;html=1;whiteSpace=wrap;connectable=0;strokeColor=inherit;overflow=hidden;fillColor=none;top=0;left=0;bottom=0;right=0;pointerEvents=1;" parent="VqH0-HbPMbV4p8qkRdue-16" vertex="1">
          <mxGeometry x="177" width="59" height="42" as="geometry">
            <mxRectangle width="59" height="42" as="alternateBounds" />
          </mxGeometry>
        </mxCell>
        <mxCell id="VqH0-HbPMbV4p8qkRdue-21" value="" style="shape=partialRectangle;html=1;whiteSpace=wrap;connectable=0;strokeColor=inherit;overflow=hidden;fillColor=none;top=0;left=0;bottom=0;right=0;pointerEvents=1;" parent="VqH0-HbPMbV4p8qkRdue-16" vertex="1">
          <mxGeometry x="236" width="59" height="42" as="geometry">
            <mxRectangle width="59" height="42" as="alternateBounds" />
          </mxGeometry>
        </mxCell>
        <mxCell id="VqH0-HbPMbV4p8qkRdue-22" value="" style="shape=partialRectangle;html=1;whiteSpace=wrap;connectable=0;strokeColor=inherit;overflow=hidden;fillColor=none;top=0;left=0;bottom=0;right=0;pointerEvents=1;" parent="VqH0-HbPMbV4p8qkRdue-16" vertex="1">
          <mxGeometry x="295" width="59" height="42" as="geometry">
            <mxRectangle width="59" height="42" as="alternateBounds" />
          </mxGeometry>
        </mxCell>
        <mxCell id="VqH0-HbPMbV4p8qkRdue-23" value="" style="shape=tableRow;horizontal=0;startSize=0;swimlaneHead=0;swimlaneBody=0;strokeColor=inherit;top=0;left=0;bottom=0;right=0;collapsible=0;dropTarget=0;fillColor=none;points=[[0,0.5],[1,0.5]];portConstraint=eastwest;" parent="VqH0-HbPMbV4p8qkRdue-1" vertex="1">
          <mxGeometry y="127" width="354" height="42" as="geometry" />
        </mxCell>
        <mxCell id="VqH0-HbPMbV4p8qkRdue-24" value="" style="shape=partialRectangle;html=1;whiteSpace=wrap;connectable=0;strokeColor=inherit;overflow=hidden;fillColor=none;top=0;left=0;bottom=0;right=0;pointerEvents=1;" parent="VqH0-HbPMbV4p8qkRdue-23" vertex="1">
          <mxGeometry width="59" height="42" as="geometry">
            <mxRectangle width="59" height="42" as="alternateBounds" />
          </mxGeometry>
        </mxCell>
        <mxCell id="VqH0-HbPMbV4p8qkRdue-25" value="" style="shape=partialRectangle;html=1;whiteSpace=wrap;connectable=0;strokeColor=inherit;overflow=hidden;fillColor=none;top=0;left=0;bottom=0;right=0;pointerEvents=1;" parent="VqH0-HbPMbV4p8qkRdue-23" vertex="1">
          <mxGeometry x="59" width="59" height="42" as="geometry">
            <mxRectangle width="59" height="42" as="alternateBounds" />
          </mxGeometry>
        </mxCell>
        <mxCell id="VqH0-HbPMbV4p8qkRdue-26" value="" style="shape=partialRectangle;html=1;whiteSpace=wrap;connectable=0;strokeColor=inherit;overflow=hidden;fillColor=none;top=0;left=0;bottom=0;right=0;pointerEvents=1;" parent="VqH0-HbPMbV4p8qkRdue-23" vertex="1">
          <mxGeometry x="118" width="59" height="42" as="geometry">
            <mxRectangle width="59" height="42" as="alternateBounds" />
          </mxGeometry>
        </mxCell>
        <mxCell id="VqH0-HbPMbV4p8qkRdue-27" value="" style="shape=partialRectangle;html=1;whiteSpace=wrap;connectable=0;strokeColor=inherit;overflow=hidden;fillColor=none;top=0;left=0;bottom=0;right=0;pointerEvents=1;" parent="VqH0-HbPMbV4p8qkRdue-23" vertex="1">
          <mxGeometry x="177" width="59" height="42" as="geometry">
            <mxRectangle width="59" height="42" as="alternateBounds" />
          </mxGeometry>
        </mxCell>
        <mxCell id="VqH0-HbPMbV4p8qkRdue-28" value="" style="shape=partialRectangle;html=1;whiteSpace=wrap;connectable=0;strokeColor=inherit;overflow=hidden;fillColor=none;top=0;left=0;bottom=0;right=0;pointerEvents=1;" parent="VqH0-HbPMbV4p8qkRdue-23" vertex="1">
          <mxGeometry x="236" width="59" height="42" as="geometry">
            <mxRectangle width="59" height="42" as="alternateBounds" />
          </mxGeometry>
        </mxCell>
        <mxCell id="VqH0-HbPMbV4p8qkRdue-29" value="" style="shape=partialRectangle;html=1;whiteSpace=wrap;connectable=0;strokeColor=inherit;overflow=hidden;fillColor=none;top=0;left=0;bottom=0;right=0;pointerEvents=1;" parent="VqH0-HbPMbV4p8qkRdue-23" vertex="1">
          <mxGeometry x="295" width="59" height="42" as="geometry">
            <mxRectangle width="59" height="42" as="alternateBounds" />
          </mxGeometry>
        </mxCell>
        <mxCell id="VqH0-HbPMbV4p8qkRdue-30" value="" style="shape=tableRow;horizontal=0;startSize=0;swimlaneHead=0;swimlaneBody=0;strokeColor=inherit;top=0;left=0;bottom=0;right=0;collapsible=0;dropTarget=0;fillColor=none;points=[[0,0.5],[1,0.5]];portConstraint=eastwest;" parent="VqH0-HbPMbV4p8qkRdue-1" vertex="1">
          <mxGeometry y="169" width="354" height="43" as="geometry" />
        </mxCell>
        <mxCell id="VqH0-HbPMbV4p8qkRdue-31" value="" style="shape=partialRectangle;html=1;whiteSpace=wrap;connectable=0;strokeColor=inherit;overflow=hidden;fillColor=none;top=0;left=0;bottom=0;right=0;pointerEvents=1;" parent="VqH0-HbPMbV4p8qkRdue-30" vertex="1">
          <mxGeometry width="59" height="43" as="geometry">
            <mxRectangle width="59" height="43" as="alternateBounds" />
          </mxGeometry>
        </mxCell>
        <mxCell id="VqH0-HbPMbV4p8qkRdue-32" value="" style="shape=partialRectangle;html=1;whiteSpace=wrap;connectable=0;strokeColor=inherit;overflow=hidden;fillColor=none;top=0;left=0;bottom=0;right=0;pointerEvents=1;" parent="VqH0-HbPMbV4p8qkRdue-30" vertex="1">
          <mxGeometry x="59" width="59" height="43" as="geometry">
            <mxRectangle width="59" height="43" as="alternateBounds" />
          </mxGeometry>
        </mxCell>
        <mxCell id="VqH0-HbPMbV4p8qkRdue-33" value="" style="shape=partialRectangle;html=1;whiteSpace=wrap;connectable=0;strokeColor=inherit;overflow=hidden;fillColor=none;top=0;left=0;bottom=0;right=0;pointerEvents=1;" parent="VqH0-HbPMbV4p8qkRdue-30" vertex="1">
          <mxGeometry x="118" width="59" height="43" as="geometry">
            <mxRectangle width="59" height="43" as="alternateBounds" />
          </mxGeometry>
        </mxCell>
        <mxCell id="VqH0-HbPMbV4p8qkRdue-34" value="" style="shape=partialRectangle;html=1;whiteSpace=wrap;connectable=0;strokeColor=inherit;overflow=hidden;fillColor=none;top=0;left=0;bottom=0;right=0;pointerEvents=1;" parent="VqH0-HbPMbV4p8qkRdue-30" vertex="1">
          <mxGeometry x="177" width="59" height="43" as="geometry">
            <mxRectangle width="59" height="43" as="alternateBounds" />
          </mxGeometry>
        </mxCell>
        <mxCell id="VqH0-HbPMbV4p8qkRdue-35" value="" style="shape=partialRectangle;html=1;whiteSpace=wrap;connectable=0;strokeColor=inherit;overflow=hidden;fillColor=none;top=0;left=0;bottom=0;right=0;pointerEvents=1;" parent="VqH0-HbPMbV4p8qkRdue-30" vertex="1">
          <mxGeometry x="236" width="59" height="43" as="geometry">
            <mxRectangle width="59" height="43" as="alternateBounds" />
          </mxGeometry>
        </mxCell>
        <mxCell id="VqH0-HbPMbV4p8qkRdue-36" value="" style="shape=partialRectangle;html=1;whiteSpace=wrap;connectable=0;strokeColor=inherit;overflow=hidden;fillColor=none;top=0;left=0;bottom=0;right=0;pointerEvents=1;" parent="VqH0-HbPMbV4p8qkRdue-30" vertex="1">
          <mxGeometry x="295" width="59" height="43" as="geometry">
            <mxRectangle width="59" height="43" as="alternateBounds" />
          </mxGeometry>
        </mxCell>
        <mxCell id="VqH0-HbPMbV4p8qkRdue-37" value="" style="shape=tableRow;horizontal=0;startSize=0;swimlaneHead=0;swimlaneBody=0;strokeColor=inherit;top=0;left=0;bottom=0;right=0;collapsible=0;dropTarget=0;fillColor=none;points=[[0,0.5],[1,0.5]];portConstraint=eastwest;" parent="VqH0-HbPMbV4p8qkRdue-1" vertex="1">
          <mxGeometry y="212" width="354" height="42" as="geometry" />
        </mxCell>
        <mxCell id="VqH0-HbPMbV4p8qkRdue-38" value="" style="shape=partialRectangle;html=1;whiteSpace=wrap;connectable=0;strokeColor=inherit;overflow=hidden;fillColor=none;top=0;left=0;bottom=0;right=0;pointerEvents=1;" parent="VqH0-HbPMbV4p8qkRdue-37" vertex="1">
          <mxGeometry width="59" height="42" as="geometry">
            <mxRectangle width="59" height="42" as="alternateBounds" />
          </mxGeometry>
        </mxCell>
        <mxCell id="VqH0-HbPMbV4p8qkRdue-39" value="" style="shape=partialRectangle;html=1;whiteSpace=wrap;connectable=0;strokeColor=inherit;overflow=hidden;fillColor=none;top=0;left=0;bottom=0;right=0;pointerEvents=1;" parent="VqH0-HbPMbV4p8qkRdue-37" vertex="1">
          <mxGeometry x="59" width="59" height="42" as="geometry">
            <mxRectangle width="59" height="42" as="alternateBounds" />
          </mxGeometry>
        </mxCell>
        <mxCell id="VqH0-HbPMbV4p8qkRdue-40" value="" style="shape=partialRectangle;html=1;whiteSpace=wrap;connectable=0;strokeColor=inherit;overflow=hidden;fillColor=none;top=0;left=0;bottom=0;right=0;pointerEvents=1;" parent="VqH0-HbPMbV4p8qkRdue-37" vertex="1">
          <mxGeometry x="118" width="59" height="42" as="geometry">
            <mxRectangle width="59" height="42" as="alternateBounds" />
          </mxGeometry>
        </mxCell>
        <mxCell id="VqH0-HbPMbV4p8qkRdue-41" value="" style="shape=partialRectangle;html=1;whiteSpace=wrap;connectable=0;strokeColor=inherit;overflow=hidden;fillColor=none;top=0;left=0;bottom=0;right=0;pointerEvents=1;" parent="VqH0-HbPMbV4p8qkRdue-37" vertex="1">
          <mxGeometry x="177" width="59" height="42" as="geometry">
            <mxRectangle width="59" height="42" as="alternateBounds" />
          </mxGeometry>
        </mxCell>
        <mxCell id="VqH0-HbPMbV4p8qkRdue-42" value="" style="shape=partialRectangle;html=1;whiteSpace=wrap;connectable=0;strokeColor=inherit;overflow=hidden;fillColor=none;top=0;left=0;bottom=0;right=0;pointerEvents=1;" parent="VqH0-HbPMbV4p8qkRdue-37" vertex="1">
          <mxGeometry x="236" width="59" height="42" as="geometry">
            <mxRectangle width="59" height="42" as="alternateBounds" />
          </mxGeometry>
        </mxCell>
        <mxCell id="VqH0-HbPMbV4p8qkRdue-43" value="" style="shape=partialRectangle;html=1;whiteSpace=wrap;connectable=0;strokeColor=inherit;overflow=hidden;fillColor=none;top=0;left=0;bottom=0;right=0;pointerEvents=1;" parent="VqH0-HbPMbV4p8qkRdue-37" vertex="1">
          <mxGeometry x="295" width="59" height="42" as="geometry">
            <mxRectangle width="59" height="42" as="alternateBounds" />
          </mxGeometry>
        </mxCell>
        <mxCell id="VqH0-HbPMbV4p8qkRdue-44" value="" style="shape=table;startSize=0;container=1;collapsible=0;childLayout=tableLayout;" parent="1" vertex="1">
          <mxGeometry x="-1281" y="2756" width="354" height="254" as="geometry" />
        </mxCell>
        <mxCell id="VqH0-HbPMbV4p8qkRdue-45" value="" style="shape=tableRow;horizontal=0;startSize=0;swimlaneHead=0;swimlaneBody=0;strokeColor=inherit;top=0;left=0;bottom=0;right=0;collapsible=0;dropTarget=0;fillColor=none;points=[[0,0.5],[1,0.5]];portConstraint=eastwest;" parent="VqH0-HbPMbV4p8qkRdue-44" vertex="1">
          <mxGeometry width="354" height="42" as="geometry" />
        </mxCell>
        <mxCell id="VqH0-HbPMbV4p8qkRdue-46" value="" style="shape=partialRectangle;html=1;whiteSpace=wrap;connectable=0;strokeColor=inherit;overflow=hidden;fillColor=none;top=0;left=0;bottom=0;right=0;pointerEvents=1;" parent="VqH0-HbPMbV4p8qkRdue-45" vertex="1">
          <mxGeometry width="59" height="42" as="geometry">
            <mxRectangle width="59" height="42" as="alternateBounds" />
          </mxGeometry>
        </mxCell>
        <mxCell id="VqH0-HbPMbV4p8qkRdue-47" value="" style="shape=partialRectangle;html=1;whiteSpace=wrap;connectable=0;strokeColor=inherit;overflow=hidden;fillColor=none;top=0;left=0;bottom=0;right=0;pointerEvents=1;" parent="VqH0-HbPMbV4p8qkRdue-45" vertex="1">
          <mxGeometry x="59" width="59" height="42" as="geometry">
            <mxRectangle width="59" height="42" as="alternateBounds" />
          </mxGeometry>
        </mxCell>
        <mxCell id="VqH0-HbPMbV4p8qkRdue-48" value="" style="shape=partialRectangle;html=1;whiteSpace=wrap;connectable=0;strokeColor=inherit;overflow=hidden;fillColor=none;top=0;left=0;bottom=0;right=0;pointerEvents=1;" parent="VqH0-HbPMbV4p8qkRdue-45" vertex="1">
          <mxGeometry x="118" width="59" height="42" as="geometry">
            <mxRectangle width="59" height="42" as="alternateBounds" />
          </mxGeometry>
        </mxCell>
        <mxCell id="VqH0-HbPMbV4p8qkRdue-49" value="" style="shape=partialRectangle;html=1;whiteSpace=wrap;connectable=0;strokeColor=inherit;overflow=hidden;fillColor=none;top=0;left=0;bottom=0;right=0;pointerEvents=1;" parent="VqH0-HbPMbV4p8qkRdue-45" vertex="1">
          <mxGeometry x="177" width="59" height="42" as="geometry">
            <mxRectangle width="59" height="42" as="alternateBounds" />
          </mxGeometry>
        </mxCell>
        <mxCell id="VqH0-HbPMbV4p8qkRdue-50" value="" style="shape=partialRectangle;html=1;whiteSpace=wrap;connectable=0;strokeColor=inherit;overflow=hidden;fillColor=none;top=0;left=0;bottom=0;right=0;pointerEvents=1;" parent="VqH0-HbPMbV4p8qkRdue-45" vertex="1">
          <mxGeometry x="236" width="59" height="42" as="geometry">
            <mxRectangle width="59" height="42" as="alternateBounds" />
          </mxGeometry>
        </mxCell>
        <mxCell id="VqH0-HbPMbV4p8qkRdue-51" value="" style="shape=partialRectangle;html=1;whiteSpace=wrap;connectable=0;strokeColor=inherit;overflow=hidden;fillColor=none;top=0;left=0;bottom=0;right=0;pointerEvents=1;" parent="VqH0-HbPMbV4p8qkRdue-45" vertex="1">
          <mxGeometry x="295" width="59" height="42" as="geometry">
            <mxRectangle width="59" height="42" as="alternateBounds" />
          </mxGeometry>
        </mxCell>
        <mxCell id="VqH0-HbPMbV4p8qkRdue-52" value="" style="shape=tableRow;horizontal=0;startSize=0;swimlaneHead=0;swimlaneBody=0;strokeColor=inherit;top=0;left=0;bottom=0;right=0;collapsible=0;dropTarget=0;fillColor=none;points=[[0,0.5],[1,0.5]];portConstraint=eastwest;" parent="VqH0-HbPMbV4p8qkRdue-44" vertex="1">
          <mxGeometry y="42" width="354" height="43" as="geometry" />
        </mxCell>
        <mxCell id="VqH0-HbPMbV4p8qkRdue-53" value="" style="shape=partialRectangle;html=1;whiteSpace=wrap;connectable=0;strokeColor=inherit;overflow=hidden;fillColor=none;top=0;left=0;bottom=0;right=0;pointerEvents=1;" parent="VqH0-HbPMbV4p8qkRdue-52" vertex="1">
          <mxGeometry width="59" height="43" as="geometry">
            <mxRectangle width="59" height="43" as="alternateBounds" />
          </mxGeometry>
        </mxCell>
        <mxCell id="VqH0-HbPMbV4p8qkRdue-54" value="" style="shape=partialRectangle;html=1;whiteSpace=wrap;connectable=0;strokeColor=inherit;overflow=hidden;fillColor=none;top=0;left=0;bottom=0;right=0;pointerEvents=1;" parent="VqH0-HbPMbV4p8qkRdue-52" vertex="1">
          <mxGeometry x="59" width="59" height="43" as="geometry">
            <mxRectangle width="59" height="43" as="alternateBounds" />
          </mxGeometry>
        </mxCell>
        <mxCell id="VqH0-HbPMbV4p8qkRdue-55" value="" style="shape=partialRectangle;html=1;whiteSpace=wrap;connectable=0;strokeColor=inherit;overflow=hidden;fillColor=none;top=0;left=0;bottom=0;right=0;pointerEvents=1;" parent="VqH0-HbPMbV4p8qkRdue-52" vertex="1">
          <mxGeometry x="118" width="59" height="43" as="geometry">
            <mxRectangle width="59" height="43" as="alternateBounds" />
          </mxGeometry>
        </mxCell>
        <mxCell id="VqH0-HbPMbV4p8qkRdue-56" value="" style="shape=partialRectangle;html=1;whiteSpace=wrap;connectable=0;strokeColor=inherit;overflow=hidden;fillColor=none;top=0;left=0;bottom=0;right=0;pointerEvents=1;" parent="VqH0-HbPMbV4p8qkRdue-52" vertex="1">
          <mxGeometry x="177" width="59" height="43" as="geometry">
            <mxRectangle width="59" height="43" as="alternateBounds" />
          </mxGeometry>
        </mxCell>
        <mxCell id="VqH0-HbPMbV4p8qkRdue-57" value="" style="shape=partialRectangle;html=1;whiteSpace=wrap;connectable=0;strokeColor=inherit;overflow=hidden;fillColor=none;top=0;left=0;bottom=0;right=0;pointerEvents=1;" parent="VqH0-HbPMbV4p8qkRdue-52" vertex="1">
          <mxGeometry x="236" width="59" height="43" as="geometry">
            <mxRectangle width="59" height="43" as="alternateBounds" />
          </mxGeometry>
        </mxCell>
        <mxCell id="VqH0-HbPMbV4p8qkRdue-58" value="" style="shape=partialRectangle;html=1;whiteSpace=wrap;connectable=0;strokeColor=inherit;overflow=hidden;fillColor=none;top=0;left=0;bottom=0;right=0;pointerEvents=1;" parent="VqH0-HbPMbV4p8qkRdue-52" vertex="1">
          <mxGeometry x="295" width="59" height="43" as="geometry">
            <mxRectangle width="59" height="43" as="alternateBounds" />
          </mxGeometry>
        </mxCell>
        <mxCell id="VqH0-HbPMbV4p8qkRdue-59" value="" style="shape=tableRow;horizontal=0;startSize=0;swimlaneHead=0;swimlaneBody=0;strokeColor=inherit;top=0;left=0;bottom=0;right=0;collapsible=0;dropTarget=0;fillColor=none;points=[[0,0.5],[1,0.5]];portConstraint=eastwest;" parent="VqH0-HbPMbV4p8qkRdue-44" vertex="1">
          <mxGeometry y="85" width="354" height="42" as="geometry" />
        </mxCell>
        <mxCell id="VqH0-HbPMbV4p8qkRdue-60" value="" style="shape=partialRectangle;html=1;whiteSpace=wrap;connectable=0;strokeColor=inherit;overflow=hidden;fillColor=none;top=0;left=0;bottom=0;right=0;pointerEvents=1;" parent="VqH0-HbPMbV4p8qkRdue-59" vertex="1">
          <mxGeometry width="59" height="42" as="geometry">
            <mxRectangle width="59" height="42" as="alternateBounds" />
          </mxGeometry>
        </mxCell>
        <mxCell id="VqH0-HbPMbV4p8qkRdue-61" value="" style="shape=partialRectangle;html=1;whiteSpace=wrap;connectable=0;strokeColor=inherit;overflow=hidden;fillColor=none;top=0;left=0;bottom=0;right=0;pointerEvents=1;" parent="VqH0-HbPMbV4p8qkRdue-59" vertex="1">
          <mxGeometry x="59" width="59" height="42" as="geometry">
            <mxRectangle width="59" height="42" as="alternateBounds" />
          </mxGeometry>
        </mxCell>
        <mxCell id="VqH0-HbPMbV4p8qkRdue-62" value="" style="shape=partialRectangle;html=1;whiteSpace=wrap;connectable=0;strokeColor=inherit;overflow=hidden;fillColor=none;top=0;left=0;bottom=0;right=0;pointerEvents=1;" parent="VqH0-HbPMbV4p8qkRdue-59" vertex="1">
          <mxGeometry x="118" width="59" height="42" as="geometry">
            <mxRectangle width="59" height="42" as="alternateBounds" />
          </mxGeometry>
        </mxCell>
        <mxCell id="VqH0-HbPMbV4p8qkRdue-63" value="" style="shape=partialRectangle;html=1;whiteSpace=wrap;connectable=0;strokeColor=inherit;overflow=hidden;fillColor=none;top=0;left=0;bottom=0;right=0;pointerEvents=1;" parent="VqH0-HbPMbV4p8qkRdue-59" vertex="1">
          <mxGeometry x="177" width="59" height="42" as="geometry">
            <mxRectangle width="59" height="42" as="alternateBounds" />
          </mxGeometry>
        </mxCell>
        <mxCell id="VqH0-HbPMbV4p8qkRdue-64" value="" style="shape=partialRectangle;html=1;whiteSpace=wrap;connectable=0;strokeColor=inherit;overflow=hidden;fillColor=none;top=0;left=0;bottom=0;right=0;pointerEvents=1;" parent="VqH0-HbPMbV4p8qkRdue-59" vertex="1">
          <mxGeometry x="236" width="59" height="42" as="geometry">
            <mxRectangle width="59" height="42" as="alternateBounds" />
          </mxGeometry>
        </mxCell>
        <mxCell id="VqH0-HbPMbV4p8qkRdue-65" value="" style="shape=partialRectangle;html=1;whiteSpace=wrap;connectable=0;strokeColor=inherit;overflow=hidden;fillColor=none;top=0;left=0;bottom=0;right=0;pointerEvents=1;" parent="VqH0-HbPMbV4p8qkRdue-59" vertex="1">
          <mxGeometry x="295" width="59" height="42" as="geometry">
            <mxRectangle width="59" height="42" as="alternateBounds" />
          </mxGeometry>
        </mxCell>
        <mxCell id="VqH0-HbPMbV4p8qkRdue-66" value="" style="shape=tableRow;horizontal=0;startSize=0;swimlaneHead=0;swimlaneBody=0;strokeColor=inherit;top=0;left=0;bottom=0;right=0;collapsible=0;dropTarget=0;fillColor=none;points=[[0,0.5],[1,0.5]];portConstraint=eastwest;" parent="VqH0-HbPMbV4p8qkRdue-44" vertex="1">
          <mxGeometry y="127" width="354" height="42" as="geometry" />
        </mxCell>
        <mxCell id="VqH0-HbPMbV4p8qkRdue-67" value="" style="shape=partialRectangle;html=1;whiteSpace=wrap;connectable=0;strokeColor=inherit;overflow=hidden;fillColor=none;top=0;left=0;bottom=0;right=0;pointerEvents=1;" parent="VqH0-HbPMbV4p8qkRdue-66" vertex="1">
          <mxGeometry width="59" height="42" as="geometry">
            <mxRectangle width="59" height="42" as="alternateBounds" />
          </mxGeometry>
        </mxCell>
        <mxCell id="VqH0-HbPMbV4p8qkRdue-68" value="" style="shape=partialRectangle;html=1;whiteSpace=wrap;connectable=0;strokeColor=inherit;overflow=hidden;fillColor=none;top=0;left=0;bottom=0;right=0;pointerEvents=1;" parent="VqH0-HbPMbV4p8qkRdue-66" vertex="1">
          <mxGeometry x="59" width="59" height="42" as="geometry">
            <mxRectangle width="59" height="42" as="alternateBounds" />
          </mxGeometry>
        </mxCell>
        <mxCell id="VqH0-HbPMbV4p8qkRdue-69" value="" style="shape=partialRectangle;html=1;whiteSpace=wrap;connectable=0;strokeColor=inherit;overflow=hidden;fillColor=none;top=0;left=0;bottom=0;right=0;pointerEvents=1;" parent="VqH0-HbPMbV4p8qkRdue-66" vertex="1">
          <mxGeometry x="118" width="59" height="42" as="geometry">
            <mxRectangle width="59" height="42" as="alternateBounds" />
          </mxGeometry>
        </mxCell>
        <mxCell id="VqH0-HbPMbV4p8qkRdue-70" value="" style="shape=partialRectangle;html=1;whiteSpace=wrap;connectable=0;strokeColor=inherit;overflow=hidden;fillColor=none;top=0;left=0;bottom=0;right=0;pointerEvents=1;" parent="VqH0-HbPMbV4p8qkRdue-66" vertex="1">
          <mxGeometry x="177" width="59" height="42" as="geometry">
            <mxRectangle width="59" height="42" as="alternateBounds" />
          </mxGeometry>
        </mxCell>
        <mxCell id="VqH0-HbPMbV4p8qkRdue-71" value="" style="shape=partialRectangle;html=1;whiteSpace=wrap;connectable=0;strokeColor=inherit;overflow=hidden;fillColor=none;top=0;left=0;bottom=0;right=0;pointerEvents=1;" parent="VqH0-HbPMbV4p8qkRdue-66" vertex="1">
          <mxGeometry x="236" width="59" height="42" as="geometry">
            <mxRectangle width="59" height="42" as="alternateBounds" />
          </mxGeometry>
        </mxCell>
        <mxCell id="VqH0-HbPMbV4p8qkRdue-72" value="" style="shape=partialRectangle;html=1;whiteSpace=wrap;connectable=0;strokeColor=inherit;overflow=hidden;fillColor=none;top=0;left=0;bottom=0;right=0;pointerEvents=1;" parent="VqH0-HbPMbV4p8qkRdue-66" vertex="1">
          <mxGeometry x="295" width="59" height="42" as="geometry">
            <mxRectangle width="59" height="42" as="alternateBounds" />
          </mxGeometry>
        </mxCell>
        <mxCell id="VqH0-HbPMbV4p8qkRdue-73" value="" style="shape=tableRow;horizontal=0;startSize=0;swimlaneHead=0;swimlaneBody=0;strokeColor=inherit;top=0;left=0;bottom=0;right=0;collapsible=0;dropTarget=0;fillColor=none;points=[[0,0.5],[1,0.5]];portConstraint=eastwest;" parent="VqH0-HbPMbV4p8qkRdue-44" vertex="1">
          <mxGeometry y="169" width="354" height="43" as="geometry" />
        </mxCell>
        <mxCell id="VqH0-HbPMbV4p8qkRdue-74" value="" style="shape=partialRectangle;html=1;whiteSpace=wrap;connectable=0;strokeColor=inherit;overflow=hidden;fillColor=none;top=0;left=0;bottom=0;right=0;pointerEvents=1;" parent="VqH0-HbPMbV4p8qkRdue-73" vertex="1">
          <mxGeometry width="59" height="43" as="geometry">
            <mxRectangle width="59" height="43" as="alternateBounds" />
          </mxGeometry>
        </mxCell>
        <mxCell id="VqH0-HbPMbV4p8qkRdue-75" value="" style="shape=partialRectangle;html=1;whiteSpace=wrap;connectable=0;strokeColor=inherit;overflow=hidden;fillColor=none;top=0;left=0;bottom=0;right=0;pointerEvents=1;" parent="VqH0-HbPMbV4p8qkRdue-73" vertex="1">
          <mxGeometry x="59" width="59" height="43" as="geometry">
            <mxRectangle width="59" height="43" as="alternateBounds" />
          </mxGeometry>
        </mxCell>
        <mxCell id="VqH0-HbPMbV4p8qkRdue-76" value="" style="shape=partialRectangle;html=1;whiteSpace=wrap;connectable=0;strokeColor=inherit;overflow=hidden;fillColor=none;top=0;left=0;bottom=0;right=0;pointerEvents=1;" parent="VqH0-HbPMbV4p8qkRdue-73" vertex="1">
          <mxGeometry x="118" width="59" height="43" as="geometry">
            <mxRectangle width="59" height="43" as="alternateBounds" />
          </mxGeometry>
        </mxCell>
        <mxCell id="VqH0-HbPMbV4p8qkRdue-77" value="" style="shape=partialRectangle;html=1;whiteSpace=wrap;connectable=0;strokeColor=inherit;overflow=hidden;fillColor=none;top=0;left=0;bottom=0;right=0;pointerEvents=1;" parent="VqH0-HbPMbV4p8qkRdue-73" vertex="1">
          <mxGeometry x="177" width="59" height="43" as="geometry">
            <mxRectangle width="59" height="43" as="alternateBounds" />
          </mxGeometry>
        </mxCell>
        <mxCell id="VqH0-HbPMbV4p8qkRdue-78" value="" style="shape=partialRectangle;html=1;whiteSpace=wrap;connectable=0;strokeColor=inherit;overflow=hidden;fillColor=none;top=0;left=0;bottom=0;right=0;pointerEvents=1;" parent="VqH0-HbPMbV4p8qkRdue-73" vertex="1">
          <mxGeometry x="236" width="59" height="43" as="geometry">
            <mxRectangle width="59" height="43" as="alternateBounds" />
          </mxGeometry>
        </mxCell>
        <mxCell id="VqH0-HbPMbV4p8qkRdue-79" value="" style="shape=partialRectangle;html=1;whiteSpace=wrap;connectable=0;strokeColor=inherit;overflow=hidden;fillColor=none;top=0;left=0;bottom=0;right=0;pointerEvents=1;" parent="VqH0-HbPMbV4p8qkRdue-73" vertex="1">
          <mxGeometry x="295" width="59" height="43" as="geometry">
            <mxRectangle width="59" height="43" as="alternateBounds" />
          </mxGeometry>
        </mxCell>
        <mxCell id="VqH0-HbPMbV4p8qkRdue-80" value="" style="shape=tableRow;horizontal=0;startSize=0;swimlaneHead=0;swimlaneBody=0;strokeColor=inherit;top=0;left=0;bottom=0;right=0;collapsible=0;dropTarget=0;fillColor=none;points=[[0,0.5],[1,0.5]];portConstraint=eastwest;" parent="VqH0-HbPMbV4p8qkRdue-44" vertex="1">
          <mxGeometry y="212" width="354" height="42" as="geometry" />
        </mxCell>
        <mxCell id="VqH0-HbPMbV4p8qkRdue-81" value="" style="shape=partialRectangle;html=1;whiteSpace=wrap;connectable=0;strokeColor=inherit;overflow=hidden;fillColor=none;top=0;left=0;bottom=0;right=0;pointerEvents=1;" parent="VqH0-HbPMbV4p8qkRdue-80" vertex="1">
          <mxGeometry width="59" height="42" as="geometry">
            <mxRectangle width="59" height="42" as="alternateBounds" />
          </mxGeometry>
        </mxCell>
        <mxCell id="VqH0-HbPMbV4p8qkRdue-82" value="" style="shape=partialRectangle;html=1;whiteSpace=wrap;connectable=0;strokeColor=inherit;overflow=hidden;fillColor=none;top=0;left=0;bottom=0;right=0;pointerEvents=1;" parent="VqH0-HbPMbV4p8qkRdue-80" vertex="1">
          <mxGeometry x="59" width="59" height="42" as="geometry">
            <mxRectangle width="59" height="42" as="alternateBounds" />
          </mxGeometry>
        </mxCell>
        <mxCell id="VqH0-HbPMbV4p8qkRdue-83" value="" style="shape=partialRectangle;html=1;whiteSpace=wrap;connectable=0;strokeColor=inherit;overflow=hidden;fillColor=none;top=0;left=0;bottom=0;right=0;pointerEvents=1;" parent="VqH0-HbPMbV4p8qkRdue-80" vertex="1">
          <mxGeometry x="118" width="59" height="42" as="geometry">
            <mxRectangle width="59" height="42" as="alternateBounds" />
          </mxGeometry>
        </mxCell>
        <mxCell id="VqH0-HbPMbV4p8qkRdue-84" value="" style="shape=partialRectangle;html=1;whiteSpace=wrap;connectable=0;strokeColor=inherit;overflow=hidden;fillColor=none;top=0;left=0;bottom=0;right=0;pointerEvents=1;" parent="VqH0-HbPMbV4p8qkRdue-80" vertex="1">
          <mxGeometry x="177" width="59" height="42" as="geometry">
            <mxRectangle width="59" height="42" as="alternateBounds" />
          </mxGeometry>
        </mxCell>
        <mxCell id="VqH0-HbPMbV4p8qkRdue-85" value="" style="shape=partialRectangle;html=1;whiteSpace=wrap;connectable=0;strokeColor=inherit;overflow=hidden;fillColor=none;top=0;left=0;bottom=0;right=0;pointerEvents=1;" parent="VqH0-HbPMbV4p8qkRdue-80" vertex="1">
          <mxGeometry x="236" width="59" height="42" as="geometry">
            <mxRectangle width="59" height="42" as="alternateBounds" />
          </mxGeometry>
        </mxCell>
        <mxCell id="VqH0-HbPMbV4p8qkRdue-86" value="" style="shape=partialRectangle;html=1;whiteSpace=wrap;connectable=0;strokeColor=inherit;overflow=hidden;fillColor=none;top=0;left=0;bottom=0;right=0;pointerEvents=1;" parent="VqH0-HbPMbV4p8qkRdue-80" vertex="1">
          <mxGeometry x="295" width="59" height="42" as="geometry">
            <mxRectangle width="59" height="42" as="alternateBounds" />
          </mxGeometry>
        </mxCell>
        <mxCell id="snUdRPySub4BI8ZLSdtp-2" value="" style="endArrow=classic;html=1;rounded=0;" edge="1" parent="1">
          <mxGeometry width="50" height="50" relative="1" as="geometry">
            <mxPoint x="-1752" y="1477" as="sourcePoint" />
            <mxPoint x="-1752" y="1272" as="targetPoint" />
          </mxGeometry>
        </mxCell>
        <mxCell id="snUdRPySub4BI8ZLSdtp-3" value="" style="endArrow=classic;html=1;rounded=0;" edge="1" parent="1">
          <mxGeometry width="50" height="50" relative="1" as="geometry">
            <mxPoint x="-1752" y="1477" as="sourcePoint" />
            <mxPoint x="-1463" y="1477" as="targetPoint" />
          </mxGeometry>
        </mxCell>
        <mxCell id="snUdRPySub4BI8ZLSdtp-4" value="cnt" style="text;html=1;whiteSpace=wrap;strokeColor=none;fillColor=none;align=center;verticalAlign=middle;rounded=0;" vertex="1" parent="1">
          <mxGeometry x="-1810" y="1267" width="60" height="30" as="geometry" />
        </mxCell>
        <mxCell id="snUdRPySub4BI8ZLSdtp-5" value="最小值" style="text;html=1;whiteSpace=wrap;strokeColor=none;fillColor=none;align=center;verticalAlign=middle;rounded=0;" vertex="1" parent="1">
          <mxGeometry x="-1467" y="1463" width="60" height="30" as="geometry" />
        </mxCell>
        <mxCell id="snUdRPySub4BI8ZLSdtp-8" value="操作次数k" style="text;html=1;whiteSpace=wrap;strokeColor=none;fillColor=none;align=center;verticalAlign=middle;rounded=0;" vertex="1" parent="1">
          <mxGeometry x="-1821" y="1395" width="60" height="30" as="geometry" />
        </mxCell>
        <mxCell id="snUdRPySub4BI8ZLSdtp-9" value="" style="endArrow=none;html=1;rounded=0;curved=1;" edge="1" parent="1">
          <mxGeometry width="50" height="50" relative="1" as="geometry">
            <mxPoint x="-1753" y="1477" as="sourcePoint" />
            <mxPoint x="-1476" y="1272" as="targetPoint" />
            <Array as="points">
              <mxPoint x="-1589" y="1423" />
            </Array>
          </mxGeometry>
        </mxCell>
        <mxCell id="snUdRPySub4BI8ZLSdtp-10" value="" style="endArrow=none;dashed=1;html=1;rounded=0;" edge="1" parent="1">
          <mxGeometry width="50" height="50" relative="1" as="geometry">
            <mxPoint x="-1748" y="1415" as="sourcePoint" />
            <mxPoint x="-1628" y="1415" as="targetPoint" />
          </mxGeometry>
        </mxCell>
        <mxCell id="snUdRPySub4BI8ZLSdtp-11" value="" style="endArrow=none;dashed=1;html=1;rounded=0;" edge="1" parent="1">
          <mxGeometry width="50" height="50" relative="1" as="geometry">
            <mxPoint x="-1627" y="1478" as="sourcePoint" />
            <mxPoint x="-1627" y="1416" as="targetPoint" />
          </mxGeometry>
        </mxCell>
        <mxCell id="snUdRPySub4BI8ZLSdtp-12" value="答案" style="text;html=1;whiteSpace=wrap;strokeColor=none;fillColor=none;align=center;verticalAlign=middle;rounded=0;" vertex="1" parent="1">
          <mxGeometry x="-1656" y="1477" width="60" height="30" as="geometry" />
        </mxCell>
        <mxCell id="snUdRPySub4BI8ZLSdtp-13" value="" style="endArrow=classic;html=1;rounded=0;" edge="1" parent="1">
          <mxGeometry width="50" height="50" relative="1" as="geometry">
            <mxPoint x="-2198" y="1617" as="sourcePoint" />
            <mxPoint x="-2198" y="1412" as="targetPoint" />
          </mxGeometry>
        </mxCell>
        <mxCell id="snUdRPySub4BI8ZLSdtp-14" value="" style="endArrow=classic;html=1;rounded=0;" edge="1" parent="1">
          <mxGeometry width="50" height="50" relative="1" as="geometry">
            <mxPoint x="-2198" y="1617" as="sourcePoint" />
            <mxPoint x="-1909" y="1617" as="targetPoint" />
          </mxGeometry>
        </mxCell>
        <mxCell id="snUdRPySub4BI8ZLSdtp-15" value="cnt" style="text;html=1;whiteSpace=wrap;strokeColor=none;fillColor=none;align=center;verticalAlign=middle;rounded=0;" vertex="1" parent="1">
          <mxGeometry x="-2256" y="1407" width="60" height="30" as="geometry" />
        </mxCell>
        <mxCell id="snUdRPySub4BI8ZLSdtp-16" value="巧克力边长" style="text;html=1;whiteSpace=wrap;strokeColor=none;fillColor=none;align=center;verticalAlign=middle;rounded=0;" vertex="1" parent="1">
          <mxGeometry x="-1913" y="1603" width="60" height="30" as="geometry" />
        </mxCell>
        <mxCell id="snUdRPySub4BI8ZLSdtp-17" value="" style="endArrow=none;html=1;rounded=0;curved=1;" edge="1" parent="1">
          <mxGeometry width="50" height="50" relative="1" as="geometry">
            <mxPoint x="-2170" y="1441" as="sourcePoint" />
            <mxPoint x="-1931" y="1602" as="targetPoint" />
            <Array as="points">
              <mxPoint x="-2136" y="1561" />
            </Array>
          </mxGeometry>
        </mxCell>
        <mxCell id="snUdRPySub4BI8ZLSdtp-18" value="" style="endArrow=none;dashed=1;html=1;rounded=0;" edge="1" parent="1">
          <mxGeometry width="50" height="50" relative="1" as="geometry">
            <mxPoint x="-2194" y="1555" as="sourcePoint" />
            <mxPoint x="-2074" y="1555" as="targetPoint" />
          </mxGeometry>
        </mxCell>
        <mxCell id="snUdRPySub4BI8ZLSdtp-19" value="" style="endArrow=none;dashed=1;html=1;rounded=0;" edge="1" parent="1">
          <mxGeometry width="50" height="50" relative="1" as="geometry">
            <mxPoint x="-2073" y="1618" as="sourcePoint" />
            <mxPoint x="-2073" y="1556" as="targetPoint" />
          </mxGeometry>
        </mxCell>
        <mxCell id="snUdRPySub4BI8ZLSdtp-20" value="答案" style="text;html=1;whiteSpace=wrap;strokeColor=none;fillColor=none;align=center;verticalAlign=middle;rounded=0;" vertex="1" parent="1">
          <mxGeometry x="-2102" y="1617" width="60" height="30" as="geometry" />
        </mxCell>
        <mxCell id="snUdRPySub4BI8ZLSdtp-21" value="巧克力数" style="text;html=1;whiteSpace=wrap;strokeColor=none;fillColor=none;align=center;verticalAlign=middle;rounded=0;" vertex="1" parent="1">
          <mxGeometry x="-2259" y="1542" width="60" height="30" as="geometry" />
        </mxCell>
      </root>
    </mxGraphModel>
  </diagram>
</mxfile>
